<mxfile host="app.diagrams.net" modified="2022-04-27T01:52:06.739Z" agent="5.0 (Windows NT 10.0; Win64; x64) AppleWebKit/537.36 (KHTML, like Gecko) Chrome/99.0.4844.51 Safari/537.36 Edg/99.0.1150.39" etag="pyxpnGM-1i-pBESiVtMQ" version="17.4.6" type="github">
  <diagram id="wlXjYAmJxZpWe4abBkhZ" name="第 1 页">
    <mxGraphModel dx="2249" dy="762" grid="1" gridSize="10" guides="1" tooltips="1" connect="1" arrows="1" fold="1" page="1" pageScale="1" pageWidth="827" pageHeight="1169" math="0" shadow="0">
      <root>
        <mxCell id="0" />
        <mxCell id="1" parent="0" />
        <mxCell id="i53oN2zVIyShYJj2S0tr-1" value="" style="shape=image;verticalLabelPosition=bottom;labelBackgroundColor=default;verticalAlign=top;aspect=fixed;imageAspect=0;image=data:image/png,iVBORw0KGgoAAAANSUhEUgAAA5oAAAIrCAYAAACOFObvAAAgAElEQVR4nOzdfVxV9Z73/7dd0SYBwRSBy40SYZ4j5VF7mMdLLU+GTlaOekjH0SmTx+TlzZjlzHQmNUctz+k0mTkpY3Nh5sjpWKT+MHPU8Gg3Y8Z4cyycIYkQtoNAJnJTIOcRvz9oLffaN9y5YHPzev6TbPZee7HWhtZ7fT7f77dHfX19vQAAAAAAsMkNgd4BAAAAAEDXQtAEAAAAANiKoAkAAAAAsBVBEwAAAABgK4ImAAAAAMBWBE0AAAAAgK0ImgAAAAAAWxE0AQAAAAC2ImgCAAAAAGxF0AQAAAAA2IqgCQAAAACwFUETAAAAAGArgiYAAAAAwFYETQAAAACArQiaAAAAAABbETQBAAAAALYiaAIAAAAAbEXQBAAAAADYiqAJAAAAALAVQRMAAAAAYCuCJgAAAADAVgRNAAAAAICtCJoAAAAAAFsRNAEAAAAAtiJoAgAAAABsRdAEAAAAANiKoAkAAAAAsBVBEwAAAABgK4ImAAAAAMBWBE0AAAAAgK0ImgAAAAAAWxE0AQAAAAC2ImgCAAAAAGxF0AQAAAAA2IqgCQAAAACwFUETAAAAAGArgiYAAAAAwFYETQAAAACArQiaAAAAAABbETQBAAAAALYiaAIAAAAAbEXQBAAAAADYiqAJAAAAALAVQRMAAAAAYCuCJgAAAADAVgRNAAAAAICtCJoAAAAAAFsRNAEAAAAAtiJoAgAAAABsRdAEAAAAANjqxkDvQGd2/vz5QO8C3AwcOPC6t1FVVaXKykrV1dWpvr7ehr0CAABoHz169FBQUJDCwsIUGhoa6N1BN0fQBH5UVVWlS5cuBXo3AAAAWqW+vl5Xr141r2cImwgkWmeBH1VWVgZ6FwAAAGzBdQ0CjaAJ/Kiuri7QuwAAAGALrmsQaARN4EeMyQQAAF0F1zUINIImAAAAAMBWBE0AAAAAgK0ImgAAAAAAWxE0AQAAAAC2ImgCAAAAAGxF0AQAAAAA2OrGQO8AAP/O/dA/0LvQbQ264cJ1b4PzFzh2nD9PnM/Asft8ci4Dpy1+NwF0TFQ0AQAAAAC2ImgCAAAAAGxF0AQAAAAA2IqgCQAAAACwFUETAAAAAGArgmY3l5WVpaysrEDvBgAAAIAuhOVNOoB3331Xo0aNkiTt27dPc+fO1TvvvKPhw4crPDzcfMzhcFhel5WVpejoaCUkJGjz5s366KOPfG5/+vTpmjNnjs/vjRw5Uhs3btTgwYPldDq9vl9bW9vott0tWrRIEyZMaNFrxo0bp4ULF3r9bAAAAAA6L4JmB5CUlKS0tDRNnDhRkrRt2zaNHTtWiYmJysnJUUJCQpNBLDIyUtu2bVOvXr0sj+fk5OjUqVOSpIqKCr3wwgs6d+6c1+tPnjxp+XrQoEFavny5HA6HevbsqY0bN5pB1Nime3j1rIp6vsYXl8ulffv2NfpzAQAAAOh8CJoB5h7+3CuABw4c0Nq1a3Xq1Cnt2rVLmzZtktQQKJ944gm9/vrrKisrkySNGDFCkjR37lyf7zF9+nTz39HR0Vq+fLlXIPWntra2VT/Xd999pyVLljT5vHHjxrVq+wAAAAA6LoJmgPXq1UsvvviiGTijo6PNVtKKigqdOnVKb731lhwOh3bs2KHhw4crMTFRW7ZssbTOvvPOO1qyZIl69eqliooKpaWlKSUlRUVFRWZF0xejqmi05rpcLm3bts3cluQ/NO7atcvy9aJFi8x/U9HsPPanb9LgYaMVn9hwwyI/56RyTx/TA7MXNfq6utoavffmqxozeab6OeNa9d51tTXKSF2n87lnNG/5BnM7+TkndfzQHiUveFZBjmBJUqmrQO+9+apmLlmlkLCIVr1fV+R5/kpdBfrk/Z166LEnzWPnC+evY2vu76E7z89CS3E+25dxvEclTW30nFVXluuNdU+rT5RTI+79M2194Smv5wwbO8lyfjxfn5m2XlNSnuZcAWhXBM0OwOVyae3atRoxYoROnjypJUuWaOXKlSosLFRZWZlqa2vlcDh08803Kzw8vEXbTkxMVGJiouWxoqIiffzxx5o7d6569eqlsrIylZWVyel06sqVKwoJCbG06ramdbY5nE6n5s+f3+LX4fqUugq09YWlulxWbD52ZPd2r+cZj/WOjLFcdBqCHMFyJgxRVsZWvxc4+TkntWXVAr/74m/buaePaVTSVMs2+znjFBOXoA8z01t08d3VNPf8fXrw2o2g+atTvS5kOX8dz/70TeobM0Aj73u4Va8fPGy0jh/ao9iEIZzPLiD78F5lbH7ecl7yc04qeeEKy2ekurJcH2am+91OSFiEEoaO5FwBaHcEzQBzuVzauHGjVq5caT72y1/+Ui+99JKio6N1++23q6ioSLGxsSosLFRSUpLl9StXrlRKSorKysq8WmfdW3HXrl2r2NhYSVJERIQZLiMjIxUSEqIrV67I6XTq1KlTGjp0qC2T89TU1OiVV15pdFKgtWvXegVhtK1+zjj9KnWP+XVzK5r70zf5DDSSdPrjA5avjbvr8Ykj9GLGcUnWu/L+go3UEKRqqqsUmzDEvNDyZOxH7KBEPf7s+m51l97X+YsfMlxnsz/SmMkzJclnRZPz17GVugpUXJCne6bMbvK5xrkoOpfj8/ue51OSGU44n53HyPse1rAxSXrvzVdb9Dp/50nyvik1ftqjhE8AbYagGWBOp1O//e1vvVpWX3zxRUkN1cOLFy9Kahif2atXL+Xk5JjB1AiQX375pTkZkHvrrPtYzIqKCklSWFiY4uLizHAZGRmpixcvKiEhQdXV1Ro8eLBlH1vTOhsSEqJ+/frpqaee0lNPebf5ILA+P5alqNjb1M8Z53WREZ84QrEJQ/TWhueUMHSk5c65URnbn94wZtjXBYrRumkw2sMulbi8LkKNCot7xe3E0X362ZgkFeWdVd6ZbD2fflRXr9bojXVPa/Kcxa1uC+xK3FsZH5i9SNmH9+rTg7ssVcxPD+7yaqfj/HVcJ47uU+6p/9CaxydZHvcMBkZgXPzrrZIazsH7O17zOjfZh/dKkld1lPMZWO6/u+48W5GN82TcNPj04C7FDkrUvVNmK2Pz815BcthY6+fGs+oJAIHQo76+vj7QO9FZnT9//rq3YbTNGhP7GIxlP2pra5WWliZJmjhxoqX6Z4zRjI2NNZ/jq3poLDtSUVGhzMxMPfLII8rLyzPbX7OyslRcXKzx48d7LaXiK7Q21jrr/j7V1dU6cMD7zronu6qaAwcOvK7X23E+7Xbuh/5tst262hp9kJGm0ZN+qf07NlsCpfsFqq/xf55tm+48KxpNVV48g5D7+MLPsjI1bNxEhYRFWFoK22u80aAbLlz3Ntrq/EnXLlhH3PtnOnn03xURGaX7k1PMY+mrDZPzd33a6nxmH96r44d2W459S8ZolroKlPPZEf1i+lxze98UF3q9lvN5TVv+bjbG/W+q5xhNXzeAqivLtXPjaj302JPNHktt/A2X5LeyKQWumtkWv5vw73qvjYDrQUUzwJxOp5YsWaKDBw+akwAZoc3hcMjhcGjo0KE6c+aMEhISfG6joqJCPXv2lOQd2twrohUVFbr55pvlcDgUHh6u6upq1dbWKjo6WmfOnNEf//hHn0upREZGtqiV1nifOXPmmGMwd+zYoZiYGE2YMKH5BwdtxriQ/JeV/1fzlm/QiaP79EzyKMtzjAuUr744ocefXa+SwnxtWbVAg4f/H/Vz3qo7R99nhhgjwIxKmma52AwJizArL9K1aookJS94VlUVly0te+e//NyszM1fnaqQsAivykxIWIRGJU3ttuON3CsfE5Ln6ZP3dyp5wbO6XHZRW1Yt0L1/Pkf7tv+zZix+zlJtMqpVnL+OpbqyXHlnslvccuorNP7771Itz3GvhhpVSs5n4Li3Ifty170P6u3XVqvUVWCGypLCfJW6vlZWxlY9MGeh9u/Y7LM1WvIeiz3yvoc18r6H9cn7b5s3CYxzHhEZxfkC0OYImh3ExIkTNWvWLEkNy5EY1UKXy6W3335bZWVlXhVNQ25urhISElRc7LtK4f68iIiGCxn3SYASExOVkJCgbdu26cEHH7S8pqioSJJaFDTd30dqqHaWlZXpkUceMb+WROgMEPf2uL4xA1R15Vs9MHuRedHhr63Sfbye1HDX3Ainw8ZO0rINv/c7zst4T8/JRvI+/0/lnck2qyjGmKSrV2sUEhahUleBst5J0+WyYp/jC69nhs3Oqp8zTg899qR2blytmUtWadoTz0iSqq58q6K8s9rxckNL3qWSC5Zjw/nrmELCIjRr6ZpWvbZPlLNVYyI5n4FhtCH7+z3r54zTqInTdeLoPvPv7/ncMwoN763vqyt07MC7mrV0jWYtXdPsWaPrams0aOjdemPd0+oZ2kulrgKfEz4BQFsgaHYAiYmJ2rFjhyQpJSVFmZmZiomJUXR0tFauXKm1a9cqPDxca9eu1ZIlSyxh88qVKzp27Jjmzp2r4uJiy6RChkWLFqmiosJ8ntQQNFesWGE+x2jdjYyMtLz21KlTGj58eLN/loqKCp05c0YpKSmSGiqqBw8e1PLly82wOmHCBO3YsUOvvPKKWcVF+zECR3Vlud7f8Zpuu+Mu8+KwrrZGNdVVqvmuWtWV5ZY2Ps/ZKpMXrjCDS/bhvVox+17L9+evTlXUgHhL1eVyWbFeXjrTa5+M8WI33RRsGZdkBKCivLPKPX1M9yenmBdXIeERykxbr6gB8d1u8pF+zjjNW/6KSl0F+ue/n6vLZcUaP+1Rv0Hy4cef1t431lu2wfnrWPxN1uT5mK8ZhJvLswrK+Ww/TVUzDUNGjtMb655Wfs5JhYbfoprvq9U//icaM3mmcj47Yql2NuZqzff6zYKpPtvk3c85YzkBtCWCZoAZYzRnzJhhTq7z4IMPKisrS9u3bzcn+JGkl156SRs3blRNTY1ef/11SdKUKVMUFxdnLj3ir3W2qKhIcXFx6tWrl5555hmdO3fO5/4YYyojIyPNSXwaa9l94YUXdO7cOUVGRmrlypWqqKjQgAED1KtXL3NGXV8z4hoiIyMtYz3RPkpdBXr7tdWa/Fd/o+OH9pihsijvrIJDQuVMGKKSwnzzgtY9nBoXqr4mpPC1PIJ7q57x3p6zoubnnFRm2nrd++dzdD73jM+L6b4xAyxfX08lqCswxskt2/B7ZaSu05Hd271CifuYu7EPzuT8dWDuXQVS02M0q6+UK7hniG66yf9aqZ48W6Elzmd7yfnsiMZMntno2raS0Yo8Tbmnj0mSOaO0JP1i+lyvGxLGBGDu46u/KS7U4GGjLbNTS77Hh/aJCsxYVQDdA0EzwJxOp7Zs2eL1+IQJE7xaS92rkL5e4yuwua+jafzXmNG2OX7yk580uk1f2zJCr7+fDYFljPF7fPkrlsframuUe/qYubyCv+rEbXfcpfn/uNnrgslo5fLFVzvu1avWiTCMC1nj4ij78F6zjS/39DENHjbaa7t/2LVNiXeP73ZtYJ5LYQT3DNGyDTstx8Fz9lgD569rqLryrYJDQpsMLr5wPtufMVFTcxgVxs+PZcmZMMQMmtK1GxL+WmframskSVED4ht9j9OfHFJEZBStzgDaFEET6GaMtkupIYx8X12putoaZaat16ikqWawHJU0VZlp673W2PvqixN+12PsHRljruUoXWvVu+2Ou7wqMzfdFKzkBc8qI3WdZXkGYw245IUrNGvpGvOi2LgLb6irrVH5NyX2HJRO5vyXn+vO0feZk3vUfFftswXSc8kDifPXVfgLe43hfHYsV6/W6PvqSoWG3+Lz+3eOnmA5xs1RlHdWkppsX6ZdFkB7IGgC3ZD7mMufT5yuHf/0D5qxeJXlzrhxp/vlpX9haadsbkXMaM81tuu+iHjywhXm62ctXWO26t3602H6X0FBejHjuEpdBfrNgqma8EiKeVEU5AiWM2GIGaqGjZ2k3pHRbXGIOixjltIpKU+bj7VFRZPz1z6aWnLG102BGYufa9Z4P8/34Xx2DO7try05Zr7GyruvnTts7CRF/u8Buuvea5P6ubfLxw5KNLsgAKA9sI7mdeiI6y52Z6yjCTt19HU00bjOtI4mmtZV1tEE62i2N9bRRCDdEOgdAAAAAAB0LQRNAAAAAICtCJoAAAAAAFsRNAEAAAAAtiJoAgAAAABsRdAEAAAAANiKoAkAAAAAsBVBEwAAAABgqxsDvQMA/GNh686N89e1cD67Ds4lALQ9KpoAAAAAAFsRNAEAAAAAtiJoAgAAAABsRdAEAAAAANiKoAkAAAAAsBWzzl6HgQMHBnoXAAAAAKDDoaIJAAAAALAVQRP4UY8ePQK9CwAAALbgugaBRtAEfhQUFBToXQAAALAF1zUINIIm8KOwsLBA7wIAAIAtuK5BoDEZEPCj0NBQSVJlZaXq6upUX18f4D0CAABovh49eigoKEhhYWHmdQ0QKD3quZoGAAAAANiI1lkAAAAAgK0ImgAAAAAAWxE0AQAAAAC2ImgCAAAAAGxF0AQAAAAA2IqgCQAAAACwFUETAAAAAGArgiYAAAAAwFYETQAAAACArQiaAAAAAABbETQBAAAAALYiaAIAAAAAbEXQBAAAAADYiqAJAAAAALDVjYHeAaAjqaqqUmVlperq6lRfXx/o3QEAAGi2Hj16KCgoSGFhYQoNDQ307qCb61HP1TQgqSFkXrp0KdC7AQAAcN369OlD2ERA0ToL/KiysjLQuwAAAGALrmsQaLTOXofz588HehfgZuDAgdf1+rq6Opv2BAAAILC4rkGgUdEEfkQXOQAA6Cq4rkGgETQBAAAAALYiaAIAAAAAbEXQBAAAAADYiqAJAAAAALAVQRMAAAAAYCuCJgAAAADAVgRNAAAAAICtbgz0DgDw79wP/QO9C2iGQTdcaJPtcv7Rt0e5eveobtVr+fwEjl1/EziHHVdMj28V2uP7QO8G0KFR0QQAAAAA2IqgCQAAAACwFUETAAAAAGArgiYAAAAAwFYETQAAAACArQiaAAAAAABbETQBAAAAALYiaAIAAAAAbHVjoHcA0rvvvqtRo0ZJkvbt26e5c+fqnXfe0fDhwxUeHm4+5nA4LK/LyspSdHS0EhIStHnzZn300Uc+tz99+nTNmTPH8prExETLc3bs2KHhw4d7PV5RUaEXXnhB586da/RnGDdunBYuXCiHw6Ha2tpG98ff62CvUleBPnl/px567ElJUkbqOp3++IDX85IXrtDI+x62PPaHXduUePd4nf/yc2Vsft7rNbGDEvX4s+sVEhZheZ8gR7CqK8u1c+NqPfTYkzpxdJ/6xgywbD8/56SOH9qj5AXPKsgRrLraGmWkrtOopKmKTxwhSaqrrdF7b76qMZNnqp8zTpJUXVmuDzPTdX9yioIcwT5/TvfHJSn78F6f++9p/upU8707u/yck9qyakGznuvr3EsNx/qNdU9rVNI0n9+/Xvk5J5V7+pgk6cju7T6f4/4Zk6T96Zs0eNho8zzl55zU+zteszzH13s8MHuR+ZjxWUsYOtLnz5V9eK/6RPX3+ix4vrfBOE5F53Ia/XmHjZ1kft67kuzDe/VNcaHlGBuPG79346c9avl+qatA7735qmYuWeXzvPl6D85J+/L8f4fn32Jfz+ecAvCFoNkBJCUlKS0tTRMnTpQkbdu2TWPHjlViYqJycnKUkJDQZBCLjIzUtm3b1KtXL8vjOTk5OnXqVJP7MHz4cB08eNDne915551as2aN332oqKhQZmam5bGePXtq48aNcjqdft/T5XJp3759Te4bWufE0X362ZgkM8wF9wzRsg07LRcL+TkndankguV12Yf3KjSij/o549TPGdeioFFXW6PMtPW6c/R96ueM0/3JKfogI03VleXmBUh84ghdKrmgjNR15kVB8oJn9d6bryo0/Bb1joxu8sLGXe/IaNV8V62ivLM+w2JTITL78N5m/3ydQXziCL2YcdzymPEz+jqXpa4CbX1hqS6XFXt9r+hcjs+gfj3BvNRVoCN7/s28KDVCSF1tjT7ISNM9U2Z7XayWugpUXJCn8rISrxC95vFJXvsWNSBe7+94TUXncswg2zsyRuMe/kud/viATn98wPy5ekfGaN7yDY1+1gYPG63jh/YoNmGI10XsbXfcpfn/uNnvxa1xg6SrqautkSvvrEZOmKK3NjxnuYmVvHCF12dQajgWb29ao6JzOV7nzf21zfmbwznpGDinABpD0Aww94qhewXwwIEDWrt2rU6dOqVdu3Zp06ZNkhoC5RNPPKHXX39dZWVlkqQRIxou+ObOnevzPaZPn+71mL+qo/H1oEGDtHz58lb/XN99952WLFnS5PPGjRvX6veAf6WuAv3x40PmRfaUectU8121Xl460+u5yQtXmP/en97wOfOsUPizP32T+R65p44pNLy3ivLOWi7kpWtVK+OO88j7HlZV+SUV5Z01A4EkfXpwl/ka49++Qo2vqp3nhW5bVOK6on7OOP0qdY+ka6FzxuLnml05bIlSV4Hefm21ZixuXuXDcOLoPt05+j6NvO9hzVq6ptHnXquQT9Ntd9xlVkiMqstzbxzQZ4f2KPHu8X7DpbENzw4A42uj2tqdXS67KEmKct6qWUvXmOfF340boyrVM7SXz8pT9uG9On5ot4aM9P3/BM5Jx8M5BdAUgmaA9erVSy+++KIZOKOjo81W0oqKCp06dUpvvfWWHA6Hpb11y5YtltbZd955R0uWLFGvXr1UUVGhtLQ0paSkqKioSKdOnZLL5dLatWvNcGoEycjISEvLrMvl0rZt2yzbag0qmoF14ug+S1ioq61RqevrRiua2Yf3mm2ujVXA3D0we5HuuvdBffL+Tg0ZOU5bX3jKcsHhq33R8IvpDTdGFv96q2V/fD3fPdAe2b1dyQtXaNmGnV4ts/vTN3m16qJpnsHdV+vtmscnNav615icz440hMzwCL214TlNSXm6ycBp3DSZsfi5JlvojJsm7q2xf9i1TaHht+jE0X0aP/WvFBIWobuTplrasD2rusYFbkRklKWVz7NFsLqyvFXHoSs4cXSfnD4qT74Y7fQzFj2nfs44lboKtGXVAs1YvEqStPWFpZrwSIrlbwHnpH0192+nMfRh8l8t0rv/8hvOKYBGETQ7ACMEjhgxQidPntSSJUu0cuVKFRYWqqysTLW1tXI4HLr55psVHh7eom0nJiaaIdI9nBqPPfLII3rnnXcUGxsrSZbA2tacTqfmz5/f5u/T3VRXliv45hC9/doaXS4rVu/IGM352183+TrjAqPUVSBX3lkNGTlOzySP8vt8z7FX8UNG6Lk3DuiNdU9rxex7Lc81QuL4aY+aX7dkPM0DsxfpnimzvcZo/mxMkk5/csgMx4TM1vM8n56McbPXw7i5sD99k0YlTTX/fX9yit/3zMrYal6YhoRFWC5c/dmfvsny2f3336VK8h4PemT3drNi/qvUPV5jx4zW76gB8ZKkrIytzR6H1pXl55w0b/g0R0hYhOYtf8X8uurKtyrKO+uzw8JgVNo5J+3DaFsdNiap0eflnj6mhKEjFd4ninMKoEkEzQBzuVzauHGjVq5caT72y1/+Ui+99JKio6N1++23q6ioSLGxsSosLFRSkvV/AitXrlRKSorKysq8Wmfd22LXrl1rmegnJyfH8p67du3yet3atWvNANoaNTU1euWVVxqdFMhzv3D9QsIi9IvpczVw8FCzOlhXW9Os1tnqynK99+areuixJ9XPGec1zsrfZA2S9FlWpnr17mMZS+OvQmlUQUtcX2vHP/2D1/hA90DgGYCuXvVut3Jv083Y/LwZYtFy7q2yJYX52rJqgeavTlVswhBbtm9Uy+MTR3hVKsrLSsxxXsPGTtK9fz5Hd4y6VxGRUZKanhTEaJl+YPYin1Vxf59dT54VXvfPo/G5M8aCdjfVleU6suff9POJ3kMy/PE8nuOnPepzHLFxc8BX5Zxz0rZiE4boj58cMluifamuLFd5WYnumTKbcwqgWQiaAeZ0OvXb3/7Wq2X1xRdflNQQCC9ebPjDHxkZqV69ellCohEGv/zyS3MyIPfWWV+VyZUrV2rRokVmuMzKytKZM2d8zv7a2tbZkJAQ9evXT0899ZSeeuqpVm0DreN5MX5k93ZNmbfMnAwo57Mj5vg0o0o18PY7JTW0O7XUiaP79OnBXUpeuELxd9wlV/5/N/u1Uc5bzfGBUkM1NeezI2bly9NXX5zQV1+c0OPPrtespWvMn3XynMVdZtbYQKmprtJbG55TRGSUWTU0Jhban75JR/b8m24OCbuu9zBaoI3KtqeIyCg998YBSyXjf996u/mZak5Fs7GZhv3NcOs+DnjLqgWWyWyyD+9V3plsn9X37tjSV32lXCPve0g1338nyf/xdn9s/urUJieoGnnfw367ETgnbS/IESxnwhCd//Jz8/8HnkoK8xURGaWQsIhmTTrGOQVA0Awwz7GTRlXSWPYjNjZWBw8e1JkzZ8xZaRMTE7Vr1y5lZWVZtpWWlmapHhr/XrRokaKjoy3h9OLFi16TBLm/NjIyUitXrmxVC21tba0k6a233tKBA97LaXiiqmkv42LcvZro3vY4cPBQnTi6Tw/MXqQPMtLkTBiifs447U/fpGlP/L3OZje9LI10bSKHAbffoZ9PnK5hY5J09WqNvvrihM8WRanx9kyjTfL0xwd0/NAe8+63+4QRw8ZO0gNzFnpVtTzHFDbVBgpvwSGhmvbEM5YqhCF54Qrdn5xyXa2zpa4C1VRXad7yV5R/tumZsH3xN3mIYf7q1EYvbg2+lkoxfub5q1N1qeSC1zFwf0+jOhMS3v1a+4zZqN1Dhfvx9je+29+yO54h1Qj97s/nnLSPgbffqU/e36mYgQle37ta+72OH9pjtrxLnFMATSNoBpjT6dSSJUt08OBBs6JoBEiHwyGHw6GhQ4fqzJkzSiDugCEAACAASURBVEjw/uMvNVQde/bsKcl3i+zFixe9wumECRM0duxYbdu2TQ8++KA5aY/7941tt1RFRYVuvvlmzZkzxxyDuWPHDsXExJjbReDEJgzR8UN79EzyKMvsrEYgbW7QDHIEa9bSNSp1FajU9bX5eHNaZz0ZFyDJC1eY2zQmkzBmGp2S8rQ+zEz3GaSlhrvemWnrmzXBDBrn/rnwtQROa/RzxmnaE88oP+fkdW3H1zI90rWA09w19zxnQn4x47glJA0bk+S1zI5niKLS0nzuFTB/v6vuM9Yaz+ectJ/ekdGSpMul/+P1vcul/6PgniGWFnrOKYCmEDQ7iIkTJ2rWrFmSGpYjmTNnjqSGiufbb7+tsrIyTZw40WflLzc3VwkJCSou9l4HrzF5eXk6cOCADhw4oOnTpysmJsZsob0eubm5ioi49j+arKwslZWV6ZFHHjG/lkTobCelrgKdONowu+/V2u/NKuT31ZV+p51vL9WV5drxj8+qT5RTz6cfNVumjEkj9qdvUvbhvV7VkbraGh0/tEenPz5gzkj6/o7XNHnOYkKmDTI2P2+pSjR30peOwL291t9yPc0Zr1mUd1afHtylTw/u0vhpj6pvzACztQ/X58PMdCUMHen1u/pNcaH6RPX3+zrOSdsKcgRr2hPPqNRVoLzP/9PyvajY23TnaP//z+acAvCFoNkBJCYmaseOHZKklJQUZWZmKiYmxmx3Xbt2rcLDw7V27VotWbLEEjavXLmiY8eOae7cuSouLrZM8GNYtMh3Ncmocrq370ZGRqqsrMyyLMnnn39umSzIF2M9zIqKCp05c0YpKQ2zSObk5OjgwYNavny5Of5zwoQJ2rFjh1555RWf40JhnyO7t6u8rERTUp5WZtp6/fMzc81qVczABP3z389t9nIVdbU1qqmuUmj4LY0+r7HW2dhBifqLJavNBb6DQ0IbHXPnrxJqVFNnLV2j/embzHas3NPHvMKDr9YuT/NXpzb5nO7E1zqkdbU1lq+buwSO3fxNaiV5n8cHZi9Sfs5J7U/f1OJWaqP64r4kQ+/IGF0uu2j5ffH1efc0bKzvhey7G89OBXfN+fvCOel4OKcAGkPQDDAj5M2YMcMMcw8++KCysrK0fft2c4IfSXrppZe0ceNG1dTU6PXXX5ckTZkyRXFxcWYw9Nc6a7yP1DAZ0I4dO8z3GzdunDZu3CiHw6Ha2lpt3rxZFy9e1PLlyyVJd955p9asWeM3EFZUVCgzM9P894ABA9SrVy9zRl1fM+IaIiMjzeot7HWp5IIZGEpdBfq+utIy0Up84ggt2/B7ZaSuU0RklN8LcffJPmIHJVrGyxiTuyQvXKEgR7CuXq2xtM76sj99kybPWazYhCHKSF3X6BIqknVJlPHTHtXlsouWtdjmr041990Ya+celNwnevH383UVnuvUefIcO2WMgXLnebHovs1hYyeZ7XXDxiQpI3WdvikubNV4WPfPlfsFpPu/fZ27plpnPcUnjlB84gjLWqyxgxJ1z5TZXj+jJM1bvsHy3GFjJ2nZht8ryBFsjhG9VOIyF5Jv6vNeXVmuDzPTmz4gnZS/z5xxbntHxujRv/+tjv5/DTdTjWPp67Xjpz1qnlfOSfvxN9by04O7fP5bklJWvKoTR96XxDkF4F+P+vr6+kDvRGd1/vz5QO8C3AwcOPC6Xt8Rz+e5H/y3HKHjGHTD9Y9h9KWjn3/jgnBU0lRm/W0jfXuUq3eP6la9tqN/froyu/4mcA47rpge3yq0x/eB3o0mXe+1EXA9qGgCAFrFaGEGAADwdEOgdwAAAAAA0LUQNAEAAAAAtiJoAgAAAABsRdAEAAAAANiKoAkAAAAAsBVBEwAAAABgK4ImAAAAAMBWBE0AAAAAgK1uDPQOAPBv0A0XAr0LCCDOP64Hn5/Oj3MIoDOjogkAAAAAsBVBEwAAAABgK4ImAAAAAMBWBE0AAAAAgK0ImgAAAAAAWxE0AQAAAAC2ImgCP+rRo0egdwEAAMAWXNcg0FhH8zoMHDgw0LsAGwUFBenq1auB3g0AAIDrFhQUFOhdQDdHRRP4UVhYWKB3AQAAwBZc1yDQqGgCPwoNDZUkVVZWqq6uTvX19QHeIwAAgObr0aOHgoKCFBYWZl7XAIHSo56raQAAAACAjWidBQAAAADYiqAJAAAAALAVQRMAAAAAYCuCJgAAAADAVgRNAAAAAICtCJoAAAAAAFsRNAEAAAAAtiJoAgAAAABsRdAEAAAAANiKoAkAAAAAsNWNgd4BINCqqqpUWVmpuro61dfXB3p3AACdyI033qjQ0FD16tVLPXr0CPTuAECH0aOeK2t0Y1VVVbp06VKgdwMA0MmFhYXplltuCfRuAECHQessurXKyspA7wIAoAuoqqrSDz/8EOjdAIAOg6CJbq2uri7QuwAA6ALq6+v1pz/9KdC7AQAdBkET3Rqd4wAAu/D/FAC4hqAJAAAAALAVQRMAAAAAYCuCJgAAAADAVgRNAAAAAICtbgz0DgDdwbkf+gd6FzqVQTdcaPVrOdYtcz3H2heOf+vwmW9bdn/Or9cHXzM7bVPuv7Xll6gc18b9tO8N6h9GjQnth08bAAAAAMBWBE0AAAAAgK0ImgAAAAAAWxE0AQAAAAC2ImgCAAAAAGxF0AQAAAAA2IqgCQAAAACwFUETAAAAAGArgiYAAAAAwFYETQAAAACArQiaAAAAAABbETQBAAAAALYiaAIAAAAAbEXQBAAAAADYiqAJAAAAALAVQRMAAAAAYCuCJgAAAADAVgRNAAAAAICtCJoAAAAAAFvdGOgd6IrOnz8f6F3o0gYOHBjoXQAAAADQCCqaAAAAAABbETQBAAAAALaidRbo5Kory7Vz42o99NiT6ueM8/mcP+zapsS7x0uSPnl/px567El9kJGmwcNGKzT8FvOxIEew5XXZh/eqT1R/xSYMUUbqOp3++IDP7Y+f9qgemL3I3h+sA6irrWn05zbEDkrU48+uV0hYBMcaAABABE2g0wsJi9DMJauUmbZeU1KeVkhYhNdz7k6aqsy09RqVNFWS9N6br+pnY5IUnzhC+Tkn5UwY4hV8PEVERum5Nw54bT8/56RyTx+z7wfqQIIcwZq1dI1mLV3T7NdwrAEAAKQe9fX19YHeia6GyYDalp2TAbXXuTr3Q3/btrU/fZOO7N7erOeOn/ao7pkyW2+se1pF53K8vj9/dapyTx+zbK93ZIym/vXfac+/vqTLZcWSpMHD/48kKffUf/h9HzurbINuuNDq19p5rFuqurK8Wx1rXwJ5/DuzzvqZ7yzs/pz7Ex0dLYfD0eTzPvj6T+2wN53b/be2vBbCcW3cT/veoP5hjJpD+yFotgGCZtvq7kHTl/yck7pUckEj73vY73OMENQnyqnkBc8qyBGs6spyfZiZrvuTUxTkCNb+9E0aPGy04hNHSLK2c36QkaZ7psxWSFiEqivLzQpqSWG+ck8f6zDhpyNcdHeXY+1LRzj+nVFn/8x3dATNzoegaT+CJtobrbNAN1DqKtDWF5Zq8PDRyj11TC8v/QvNW75BJUVfqbysRFev1ijIEazgm0MUGn5Li7YdnzjCDEtdSWPVSV96R8Zo3vINksSxBgAA3R5BE+jiSl0Fevu11WYIkqRfTH9MO15+Vn2inBpw+x0qKcxX1IB4XSzM190/ji00bFm1QFPmLVN5WYnWPD7J8j33CWvmr07tUiEoJCxCi3+91fzaqDjGJ45QXW2Npepo4FgDAAA0IGgCnYxRnTTG9LnL2Py8+W+jwtbPGafFv3lDpa4Cvffmq5q5ZJUlRBltt1LDJDQhYRHKzzmpLasWSGoINVED4lX45RfmBDXu7Zy+Jh/qir4pLlSfqMZbFDnWAAAADQiaQCfTzxmnX6XusTzW2BhNz2BqVMqGjZ2k5AXPKmpAvI4f2qM8ZZszpcYnjtCLGceVfXivZVuZaestlTXj38kLVzQ6PrQraE6rK8caAACgAUET6OL6OeM0Y/FzOn5ojzkxjRFqghzBCnIEK2HoSOWdyVZswhCf26i+Uq7gniGSvNs23at0XVV1ZbnPVleDsd7mqKSpHGt0OsZntKkbGJ6V+sawniwAgKAJdBOjkqZqxex7JVkv0kpdBcp6J02Xy4o1Kmmqz7F/57/8XM6EIfqmuLBd97mj+DAzXQlDRzZ6cR3cs6HiWXXlW441OqTG2u4la+u9wbjZUV1Zrrc3rVHRuRyv8cMG92o768kCAAiaQDcQnzhC+9M3SZKmzFumj/b+Tn1jBqhPVH9tWbVA81enKjT8Fm19YalmLH7OEoCqKy7r82OH9dBjT+qb4kJzPKG75IUr2u1naU/GzLO33XGXV7WnprpK1VfKFRIWoctlF3Uh/78lcazRcflqu5earmgavwc9Q3uZbeDuITH78F4dP7RbQ0aOszy/6FyOpSL56cFdlvVkjWDb2Hqy/kLt+GmPtvTHBwC0M4Im0Im0tCLhfgE34ZEUvZhxXJI0ZvIMZR/eq/d3vGapGPzNb7dp58bVulr7vfb860uSpHEP/6Vi4hLUzxknqfu0cxrH2jMMSg1tsM6EIXp56UzzMePC9zcLpnKs0aFlH97rs3rp/phRia+uLNfOjas1Y9Fz6ueMU6mrQFtWLdCMxaskNSzlM+GRFMsMzcYEWP7Wk809fUzPpx/1Wk/2V6ljvNaTNdp0fa0nCwDo2HrU19fXB3onuprz588Hehe6tIEDB9q2rfY6Vyyo3jIsXt9+7F7InuPfOu35mXdfqsf4WrpW0TRaU32NgXSfJdnga4Iqz7V7JZnryX5x/Kg5i7IxltO4ueIZNI0lhK539mW7P+f+REdHy+FwNPm8D77+UzvsTed2/60tr4VwXBv30743qH/YDYHeDXQjVDQBAOgm8nNO+qxmStaKZuygRFVXlqukMN8SLMdPe9Ss1huyD+/VM8mjJF3rovjg7f/HerIA0M0RNAEA6CaM5XTceVY0jephc58/8r6HvSqaPxkxhvVkAaCbo3W2DdA627Zone36aJ1tP7TOdgzt8Zlvaoy3L/NXp0qSz4mpfD03PnGE3/cxJhK6erXGDLKesy8brbNRA+LN5/ha4qSl68nSOtv50DprP1pn0d6oaAJdRF1tjWVMU0v4qxYYE4E89NiT5hgqcKztVuoqUM5nR/SL6XPNyWHc11o01l/0bJOsrizXh5npuj85RUV5Z/2God6RMZq3fIPP45p9eK++KS5s9pqM7tW85q4/2VE0d9ZZX59Ro6rp7/NrbMN4H9aTBQAQNIFOrNRVoLdfW60Zi1epnzNOd937oN544SnNWLxK57/83O9YLEmWZQpCwiI0Kmmq3lj3tB5/dr3ZquYv+BjLd3SnBdM51m2nnzNO57/sY4aR4vN5KnV9rYcee9J8TtSA+Ca346vKVVdbo/fefNXva4aNSVJG6jplH97baQLj9fA1mY/Bc4ymL/7WlP2muFB9oqyVVdaTBYDujdbZNkDrbNuidbaBv8qCvxkjS10FZoXIcw28xkKSwfMi3n1ZArt1tNZZjnXzteb4+zsuw8ZO0riHZ2nHP/2DpQ3TWErmyO7tlsfcv3ZnVDSrrnzbrBZQg1FJayycuWtpO6e7QH7mm1PRNNphJzyS4jfMj5k803KjZH/6Jh3Zvd1cT3bCIylNriebfXivgm/uqezD7+mhx57UiaP7fJ5XWme7Plpn7UfrLNobFU2gk/owM12jkqZ6VRbiE0e0OJC4X7T5ush0b4sz3HXvg/rk/Z2KTRhiCVNdEce6bRmTyRiB071VMvvwXjOIGAH+/uQUBTmCdc+U2ZbW2b4xA8xjaxzHYWOSLBVN98paY4xKssE4b/5aZ32dt46srrZGGanrzPGPxlhMqWEdzFlL11ieJ0nLNvze/Px5jsMcP+1RM2S6h1LWkwWA7ougCXRCpa4CFRfk6Z4psyVZLxpjByWaLZnNlbH5ea+KkucEHMkLV1i+7h0ZLUm6XHaxS48p5Fi3j/3pm/TVFyc0bOwkbVm1QOOnPap7psyWK++sJJlBI6JvVIvCdpAjWNOeeEZSQ4tufOKIRivLRvWzK7cqSw3HZdbSNWagbOp5nvyN92zse75mpw0Ji9C85a9Ikn6VOsbrNb7OQ2tu8AAA2h9BE+iEqq58q5i4BDPgGBeDU1KeNmdqbInWVNmCHMEKDglV1ZVvu2z4kTjW7cGoHi7+9VbtT9+k+atTdankgtY8Pklzlq2TK/+/VVdbo/Nffq7QiD6W1371xQl99cUJ3Ttlts8Qb3ztPk7WV+CprizXG+ue1m133OXzGHtu29e/PW8QAADQnRE0gU7oUskF9Y0ZYNv2WlNlk6S+MQN0qeRCl64ucKzbnlG12p++SX1jBpgVq5H3Pay62hq58v9b1ZXlcuWd1ZjJMy1VZSNAnv7kkCXEt2RG2MbGHxq6WussAABtjaAJoFVVNrQOx9qbMWmMwQjixti8vjED9Iddb0pqaCN2ryp/mJluvs6Vd9aczdR9W7GDEvVXf/trvf9vm3yuyej+XPebAEaIBQAALUfQBDqhPlH9lXv6WKPPyc85KUlNVsCaU/Hx95xvigs1eNjoJl/fmXGs2979ySkqLysxl7owArixpMmQkeN0/NBuTZ6z2O/4zG+KC9XPeaskWWb7NdY8vfEmh88xif5mTDW4h+CmWmeN/egs4zvdZ0eW1OhxMJ7/3puvauaSVU2OS/7Drm1KvHu8JHmth+q+Rqrn+cw+vFd9ovorNmGIZbIiT82d1KmraKxC7z4xk6/j0py1Yt3XBi4pzFfu6WO6PznF/ExUXfnW5wzb0rVzHRIeoTfWPa2iczk+3+N6ZmVuC54TWvnS1OfM3wzjBmPiKmNSMvdj6X58PX/n3NcWbmxMeWvmCQDaE0ET6IRCw29RcUGeqivLff4P5rNDe5ST/aEef7bxMYSelSR3vi7w3Me51dXWqKa6SqHht7Tuh+gkONZtr7qyXBOS5ykrY6u2rFpgTshjHO8PM9NVdC5Hxw/t8TnzbnVlucrLSjR42GiVur62dd8emL2oWwUaf6ory/X2pjUqOpejNY9P8vkc9yBxd9JUZaat16ikqZIaQuzPxiSZy8U4mzGDckRklGWGWoOxrFB3UVdbo2+KC3XPlNnmWGL3MDds7CTLjMD+luNpavmfu+59UAff2qIhI8epprrKEoLOf/l5s2503XbHXZr/j5t93kDoiAYPH+03JBph73rEJ45Q7uljyj/bcDPy3JnPVHG5TA/MXqTqynIFh4Sak701xnPmZelaRwzQkRE0gU6od2S0bg4JU0lhvuV/PtVXynU+94wiIqO0+Ndbm9yOr4tof2tGerpcdtHcl66MY932IvpGq9RVoPO5ZzRs7CQF9wzR25vWaM6yddq/Y7Mk6fn0o/ogI00ZqevMAG7I+exDRURGKTT8FuWeOqZPD+6ybD92UKI5a3BrGeNCz+ee0bzlG9TPGWdWREIjbunSVQUj3PQM7WW5AWLIPrxXxw/t1pCR4yzPLzqXY7mJ8unBXZq/OlW5p4/pyO7tZpWmd2SMpv7132nPv75kVpcGD/8/kuQ31BprqXYHxtI9xudr8pzFulRyQUNGjjP/fkjS7tdf1JjJMxWfOMJcVsbfWr+e3Kt77r8/uaeOac7f/lp5Z7KV8fG1qlrsoETdN32u3nzx7yRJ//67VA0bO0mXSlx+A21nnizLczkgT55/c6SGn/eb4kId2b3d5zEZPGy01/em/fUz+vq/Tpvvc/zQHg0ePrrRiibQkRE0gU4oyBGsCcnzvNZWrLryrWVCE8/WoOSFK2xbh/HE0X362ZikLrmuozuOddszljb5m99uMy+mjbAyKmmaeYwfmL1I2Yf36oOMNEkNFZqfT5yumuoqjZk8U5J3hcJoCfTkXvUZNnaS3xBvtK0ZVR/3FjdjGQ/3YOWr8tCRGBMuNdXCmJ9zUscP7dHkv1qkd//lN5qx6DkzXG9ZtUAzFq+SJHMSJfebLSFhEVr8663mcekT5TTDaXVluXJPH9Pz6UcV5AjW/vRNGjxstOITR+hXqWMsrbMfZKSZbbruN2WM1s7uoK62RsXn83T3hCnKzzmp93e8pjnL1pk/f8LQkTqb/ZG+KS7Uz8YkWT6fdbU1On5ojwbcfod+s2Cq3xZR4zP7q9Q95t+xn41NMsNpqatA0QPi9WLGca9W8xczjltaZz/MTDcrmu5tpac/OdT2B6sN+VsOqKnWWanh79b+9E3648eHLH9D/rBrm5Zt2Kl+zjjzhsDPJ03XzydN14TkeZbW2fk/dgNIMn9nogbEU9FEh0fQBDqpfs44OROGaMs/LjSrKZ7ryzW21p0/7ou1+2MsR9GRL6jtxLFuW76qLUZY8eQekHy9zlgz0xDkCPa7FqNR9WmMr6VQmruvHdHgYaN1/NAeDRuT1Ojzck8fU8LQkQrvE2Wucyk13GApyjurl5fObPT1RmAZPHy0ck8d08tL/0Lzlm9QSdFXKi8r0dWrNQ3L9twc0uKW8O60jublsov6aO/vlLn1ZfWOjNGMxc9px8vPquhcjleV7Mju7ZaK8+lPDikiMkpjJs/QmMkzvLa9P32TystKFJswRNK1my/jpz2qI7u366svTujxZ9fr3JnPVP5NiepqayRJwSGhCglvWfW+I43NbE9GJfT76kr1c96ql5fOVPLCFRp4+526WJivgYOHmsGzpbObN+f/H0CgETSBTqw5F8FtoTuOWeNYoyuITRiiP35yyGzH9sUY83rPlNle4/3GT3vUK6BnH96rZ5JHSbrWBvvB2/9P85ZvMJ/zi+mPacfLz6pPlFMDbr9DJYX5ihoQr4uF+br7x3Gchi2rFmjKvGUqLyvxap11b13s6NVjOxg3sNwrv4t/vbXJlthSV4Gy3knThEdSvL5nhB9JZig1qqXPvXFAJYX5kqS77n1Q//z3c/WzsUmK6BtlfmZqqqt0003Xqnc131fr5aUzNWfZOn31xQmvAGy0lfrqCgg0X6327txbtBtrn/XcxvzVqeaEVglDR5qTAS3bsFMnju5T1jtpevDRv9H53DPmOE7PMbDHD+3RxcJ8Dbj9Dq8xt+7HuLtNjIXOhaAJAEA3EeQIljNhiM5/+bkG3n6nz+eUFOYrIjLKrNz7CpbStSqVr5swPxkxxmuWWqPqa8zEKcl8H/dAO391qqIGxKvwyy/MyYCaO565K8o+vNdcX9azRd8z1BlL+WRlbPUb6IxKp3s4cQ+wxw/tMQOo0aWRfXivqq58q0slF8yJnNzbypdt2ClJ6n/rYJ+tsx217b8lkwF5ts82NWO1JM1ausYMqKOSpqqfM84cr19dWS5X/n+r/JuLKi8rUdSAeEsbvhEg96dvstxUcb/pAHR0BE0AALqRgbffqU/e36mYgQle37ta+72OH9pjzhYr+Z/F1HOCEuNi2DMMGVVJo60zakC8jh/aozxlm+9jBFrP2Ukz09ZbKkjGvzvaUhltpbqyXMcP7VbRuRxlbH7enGHWWCrGV9jIzzmphKEjJUlV5Zf02j/M87nkiBFSe0fGKGnmX+vt1661YRrH2Qg7A2+/U1kZDTcKJiTPk3TtBsMfdm0zX1fzXbX+7Z/+Qbmn/sN8zKj2dfYKtBEsR06YouysTI2ZPFMTZ8233ACprizXzo2r9dBjT6p3ZLSlAmr817Oye+zAu+YNF0la/OutXiE39/Qxy++gce58Tc4FdCQETQAAuhFj4qPLpf/j9b3Lpf+j4J4h5rg9yTqe1V9l0T0g9nPGacbi5yyVMeP7QY5gBTmClTB0pPLOZFvex131lXIF9wyR5B1Q3CuiXZ2v8b/VleU+W1SNNRWNMazZh/cqNKKP1+uNCZc8Q98PP/xgWW/TqJxJDec0IjLK/LcvVVe+VXDPEAX3DDEnuXF/z87OnP27X4z5WEhYhEYlTdWHmel6YPYihYRF6KHHnjQruVNSntb31ZV66LEnzcm0Pnl/p/k7eNe9D+rt11abk2t5Mpa26ue81atFtrqyXB9mprfhTwxcP4Im0IUZbTi33XGXzzEcvtZk84c7p43jWKOzCHIEa9oTz6jUVaC8z//T8r2o2Nt05+gJfl/7YWa6EoaO9Gpf/aa4UH2i+lseG5U0VStm3yvJOo7MGD94uaxYo5Km+qxynf/yczkThuib4sJW/YxdjbEOr7FESP9bB6v/rYM1ZvJMs3I2Kmlqq9uK62przAq3Md42eeEK89zk55zUkd3b1TsyRnfd+6DPsJl7+piGjByns9kftWofOrqqK98qOCTUMj5VujY5lXursDNhiE5/ckhxg4fq4blLtfO11So6l2PeDDDWR87K2KqivLM6cXSfz/9vGOG2b4xTFZfL2uXnBOxE0AQ6sVJXgXk31PN//HW1NcpMW6/Ekffo6//6o0pdBT4vDvpEOZtcA9DzzqkxE2p3moCAY43uzGiHdV/Sx2BUXdxnj41PHGF+dqfMW6aP9v5OfWMGqE9Uf21ZtUDzV6cqNPwWbX1hqWYsfs66Rm3FZX1+7LAeeuxJfVNc6LNttzOvydgSxg2qyXMW64HZiyzjXm+6KdhrbdfWCnIEK8p5qz7a+5Z6R8Zo3MN/qYzNz6tPVH9dKrmgrHfStGzDTlVd+VZbX1jq9X4lRV+puCBPoyf9UieP/rvPWYnnr05t9f61lZZMBuRrwh53RhANcgRbfkfyc06q6FxOw1JM31UrM229HpizUDtefla33XGXnk8/qozUddqfvsnr7/yJo/saxsTeFOxzPc5hY32vMwt0FARNoJOqrixXVsZWPb78Fa/g4j75QHziCN3tNm7Ejhn/jAkK8nNOduoxN83FsUZX4G+spfuFtudFd8qKV3XiyPuSpGUbfm9W2T3HYY6f9qj5eXcPpUbL7ZjJM5R9eK85s6nxe/Q3v92mnRtX62rt99rzry9JksY9/JeKiUswt0frbEPrs8EAYwAAIABJREFUa11tjT55f6e+qyzXmscnmWP9QsIjzG4Jo2Lm+XfKvaPCeJ0747Mxf3WqOdnNmMkzzCVQjHPfzxmnecs36L03X9XPJ07Tmy/+nWIHJSpx5D26c/R9CgmL6FStsy2ZDMg9BDoThniFac/j6j67r7FurLHdf1n5fy03WGYtXaP96Zv06YFd+vq/Tuv0xwf0Z3+5wJz9uaQwn9ZZdEo96uvr6wO9E13N+fPnA70LXdrAgQNt21Z7natzP/Rv+kkt5G/muWo/QcfXDHnGeKs7Rt2rHS8/6/e95ixbJ1f+f+v+5BTL/yzbakbBQTe0/iKSY90y13OsfWmL498ddLTPfFdj9+fcn+joaDkcjiaf98HXf2qHvenc7r+15bUQjmvjftr3BvUPuyHQu4FuhIom0AmVugpUXJCne6bMtjxuTDcvyTLrn7tPD+7ymrEx/o67Gl283piG3Z05oUjZxQ61LprdONYAAAAtR9AEOqGqK98qJi7B0h61P32T+sYMaDTEGLIP79X+9E2W8OTZCifJ0prlKcgRrOCQUFVd+bZLhx+ONQAAQMsRNIFO6FLJBfWNGWB5rCWTxRgVturKcsvj7uNVjPbPxvSNGaBLJRe69NhBjjUAAEDLETSBLqQ5S2iwdIY9ONYAAAD+ETSBTqhPVH/lnj7m53v+l9AwJpXxx3Oq996RMRoz2XuaesM3xYWNTvfeFXCsAQAAWo6gCXRCoeG3qLggT9WV5a1eoNsXf1O9e7Z9Sr7XzuuKONYAAAAtR9AEOqHekdG6OSRMJYX5XmP2LpW4tOZx/4s4+1vguZ8zTtOeeMbn96qvlKumusry2OWyi+a+dGUcawAAgJYjaAKdUJAjWBOS5+mT93cqNmGIpSp2Pe2c7ozFpk9/fEBSw4Ls7u9z4ug+/WxMUpcff8ixBgAAaLke9fX19YHeia7m/Pnzgd6FLm3gwIG2bau9zlVbLaiefXivjh/a7TfstJX96ZsktWz21ZboiIvXc6ybp62Of1fXET/zXYndn3N/oqOj5XA4mnzeB1//qR32pnO7/9aW10I4ro37ad8b1D/shkDvBroRgmYbIGi2LYJm18dFd/shaHYMfObbFkGz8yFo2o+gifbGpw0AAAAAYCuCJgAAAADAVgRNoAvLzzlpjvFry9eAYw0AAOCOoAl0YqWuAr32q8dV6irw+f2oAfH66osTys852extxiYMUXlZibIP7/X7nP3pm7pdQOJYAwAANB+TAbUBJgNqW0wG1KC6slyZaes1JeVphYRFqNRVoK0vLNXlsuJmvX7+6lTFJ45Qfs5JbVm1oMnnj5/2qGXm0/3pmzR42GivtSXt0NEmRuFYNx8T07ROR/vMdzVMBtT5MBmQ/ZgMCO2NdTSBTurDzHSNSppqWWpj8PDReuixJ3W57KLefm21ZixepX7OOK/XelbIPIONp/yck8o9fczy2F33PuhzbcmuiGMNAADQMgRNoBMqdRWouCBP90yZbT7WzxmnaU88o/3pm3Rk93ZJ0stLZ3q9NnnhClvWZOwdGS1Julx20WfA6io41gAAAC1H0AQ6oaor3yomLsFSYaurrVFG6jqd/viAxk97VF99cUKPP7vefM7+9E366osTGjJynC37EOQIVnBIqKqufNulww/HGgAAoOUImkAndKnkgvrGDLA8FuQI1qylazRr6RpJDeMK31j3tIrO5UhqGCfor7p2ZPd2szLnz/hpj3o91jdmgC6VXGiTsYMdBccaAACg5QiaQBfgXmEzxA5KNKtsnkFIkoaNnaTkBc9Kat24we6KYw0AANA0gibQCfWJ6m8JI+4VtuzDe5Wx+XkVncvRmscneb3WM+j4qth5ik8c4bOS9k1xoQYPG30dP0nHx7EGAABoOYIm0AmFht+i4oI8VVeWW8YOGozlNDx5VsvqamvkyjurMZO9J7JpSl1tjWqqqxQafkuLX9uZcKwBAABajqAJdEK9I6N1c0iYSgrzfYacxtZqdB//V5R3VjXfVZuzmrbE5bKL5r50ZRxrAACAliNoAp1QkCNYE5Ln+V1bsblVttzTxzQqaWqr1mY8cXSffjYmqcuv68ixBgAAaLke9fX19YHeia7m/Pnzgd6FLm3gwIG2bau9ztW5H/q3yXazD+/V8UO7LUtrtIf96ZskyZY1In0ZdMOFVr+WY90y13OsfWmr49/VdcTPfFdi9+fcn+joaDkcjiaf98HXf2qHvenc7r+15bUQjmvjftr3BvUPuyHQu4FuhKDZBgiabYug2fVx0d1+CJodA5/5tkXQ7HwImvYjaKK98WkDAAAAANiKoAkAAAAAsBVBEwAAAABgK4ImAAAAAMBWBE0AAAAAgK0ImgAAAAAAWxE0AQAAAAC2ImgCAAAAAGxF0AQAAAAA2IqgCQAAAACwFUETAAAAAGArgiYAAAAAwFYETQAAAACArQiaAAAAAABbETQBAAAAALYiaAIAAAAAbEXQBAAAAADYiqAJAAAAALDVjYHeAbTOu+++q1GjRkmS9u3bp7lz5+qdd97R8OHDFR4ebj7mcDgsr8vKylJ0dLQSEhK0efNmffTRRz63P336dM2ZM0e1tbWNPs/duHHjtHDhQq/3BAAAANC9EDQ7qaSkJKWlpWnixImSpG3btmns2LFKTExUTk6OEhISmgx8kZGR2rZtm3r16mV5PCcnR6dOnTK/7tmzpzZu3Cin0+l3Wy6XS/v27buOnwjA/9/e3YdHVd/5/38lgAnkFkJIAgnEEIhLALlpShEoVkSLVFYwxVqoIvy2XAKlVHe3LYIWUbvU1SIrcul+o2ihrpIFvmClQqEquJTma7jRsCIYQhJMQojkhkBChPz+iOcwk0ySmeRM5kzyfFyXlyQz58wn8zoz57zP53M+BwAAoLOg0PRDlZWVevrpp3Xy5Emnnsb33ntPq1ev1uHDh7V161atX79eUkNB+dOf/lSvvPKKSktLJUljxoyRJM2bN8/la8yaNcv896VLl7R06dJW2zVp0qQ2/00AAAAAOg8KTT8UHh6uNWvWmAVnbGysOWS1srJShw8f1ptvvqmgoCBt2rRJo0ePVmpqql5++WWnobNbtmzR0qVLFR4ersrKSmVkZGjBggUqKCigR9NigwOLfN2ELoP32rd4/zse77n/uXUQh1/ewPvassAAX7cAXQ2fSD9VWFio1atXa8yYMcrOztbSpUu1cuVK5efnq7S0VLW1tQoKClLPnj0VERHh0bpTU1OVmprq0TLx8fFauHChR8t0JYG65usmdBm8177F+9/xeM/tIyDAvSP57kzF6BW8r4C9UGj6ocLCQq1bt04rV640f3fvvffq2WefVWxsrIYOHaqCggIlJCQoPz9fU6dOdVp+5cqVWrBggUpLS5sMnXUcirt69WolJydLkmpqavT73/++xUmBVq9e7XGB6ms9evRQXV2dr5sBAOgEunfnsAoADAH19fX1vm5EZ3PmzJkOeZ3CwkJt3LjRHP5qyMnJUXFxsWJjY3X48GHNnTtXOTk5ZmG6evVqJSQkmENlGw+ddVxXbW2ttmzZohkzZjSZNMhXBg0aZNm6KisrdeHCBcvWBwDomnr16qXo6GhfNwMAbINC0wu8XWgaw2aNiX0Mxu1FamtrlZGRIUm64447nHoZjWs0jUJTksteysWLF2vKlCmqrKzUjh07VF1drffee6/VtnVEr6aVhaYkVVRUqKqqSlevXrV0vQCAzi8gIEC9evVSnz59FBjI2E0AMDDGww/Fx8dr6dKl2r17tzkJ0N69eyVJQUFBCgoK0siRI3Xs2DFz6GtjlZWV6tWrl6SmxaHRI2o8r2fPnpo7d655DeamTZsUFxenKVOmePPP7DARERGKiIig0AQAeKxbt26+bgIA2BKFph+74447dP/990tquB3J3LlzJTX0eL799tsqLS1t0qNpOHHihJKTk1VU1PJshSdOnFBkZKT58969e1VaWqof/vCH5s+SOkXRycECAAAAYA3GePip1NRU8xYkCxYs0P79+7V3717l5ORo6dKlWrp0qdatW6d169YpJyfHadmKigodPHhQKSkpkhomB5o1a5b5n3EtZ2VlpY4dO6a0tDRJDT2du3fv1oIFCxQUFCSpocAsKirS73//e9XW1nbUnw8AAADAxujR9EPGNZqzZ8/W1q1bJUnTp0/X3r179cYbb2jjxo3mxD3PPvus1q1bp5qaGr3yyiuSpBkzZigxMdG8L2ZzQ2crKys1cOBAhYeHmzPdupqp1hAdHW32qgIAAADoupgMyAs6atbZrsrqyYAAAAAAWIuhswAAAAAAS1FoAgAAAAAsRaEJAAAAALAUhSYAAAAAwFIUmgAAAAAAS1FoAgAAAAAsxX000eVdunRJlZWVunLlirjbDwAA6AwCAgLUvXt3hYaGKiwsTAEBAb5uEroYCk10adXV1Tp//ryvmwEAAGCp+vp61dXV6cKFC7p69ap69+7t6yahi2HoLLq0qqoqXzcBAADAq6qqqhi1hQ5HoYku7cqVK75uAgAAgFcZvZtAR6LQRJfG2T0AANAVcMyDjkahCQAAAACwFIUmAAAAAMBSFJoAAAAAAEtRaAIAAAAALEWhCQAAAACwFIUmAAAAAMBSFJoAAAAAAEtRaAIAAAAALEWhCQAAAACwFIUmAAAAAMBSFJoAAAAAAEtRaAIAAAAALEWhCQAAAACwVHdfNwDAdRUVFfrwww+Vk5Ojs2fPqri4WFevXvV1s2wrODhYycnJGjVqlKZNm6aePXv6tD3k5xk75Ud2nrFLduTmGXLzT3bJDfBUQH19fb2vG9HZnDlzxtdN6NQGDRpk2brsktXFixe1fft27dq1S5cvX/Z1c/zSgAEDtGLFCsXExHT4a5Nf+/kqP7JrP19kR27tR27+qT25xcbGKigoyAutAlyj0PQCuxQvnVVnKzTLy8u1atUqsy3xg4fp27f/o/onDlHcjUPVvXsPH7fQHiq+KtV//OuDqiov001jbtH476dr4JDhyj1+WLs2rdf5onz1799fa9asUUhISIe1i/zcY8f8yM49dsuO3NxDbv7Jm7lRaKKjUWh6gR2Kl86sMxWa58+f1+OPP67i4mKFRfbRzIW/Vmrad33aJjuqqb6ol1b+k0ryczX21umaveRxp8frr13TK6sWKzcnWzfffLOWL1+uHj28f9BCfu6xY35k5x67ZUdu7iE3/+Tt3Cg00dGYDAjwkZqaGj399NMqLi5WeJ9oPfzUf7Ljbcb+d95USX6uomLjm+x4JSkgMFALVq5T7+hYHT16VH/961+93ibyc5/d8iM799kpO3JzH7n5JzvlBliBQhPwkczMTJ05c0ahEb21+Jn/o6jYeF83yZYuV1fpo3ffUmBgN/3kn/+t2ed1795DD/zrswoICNC2bdtUV1fn1XaRn3vsmB/Zucdu2ZGbe8jNP9ktN8AKFJqADxw5ckRbt25VYLdu+vEvnlJk31hfN8m2Pnr3LV2urlLK6PGKSxzS4nP73zhUNw4brZKSEr3//vteaxP5uc9u+ZGd++yUHbm5j9z8k51yA6xCoQl0sPr6ev3xj3+UJI3/froGD/+Wj1tkX1e//lqHdm+TJH1v1oNuLTNx+o8kSX/+85+90ibyc5/d8iM799kpO3JzH7n5JzvlBliJQhPoYJ988olOnTqlsMgoff/Hi3zdHFvL++yoKi+cV1ziEA1KGenWMjeNuUW9wiJ1+vRpnT592vI2kZ/77JYf2bnPTtmRm/vIzT/ZKTfAShSaQAfbunWrJGncHTN1Q1Cwj1tjb4f3N5ypHfYt9yeO6Na9h/5h7ARJ0gcffGB5m8jPfXbLj+zcZ6fsyM195Oaf7JQbYCUKTaADffHFFzp27JhuCO6p8Xem+7o5tnbt2lWdOHxQkjTylikeLXvzhKmSpI8++khXr161rE3k5z675Ud27rNTduTmPnLzT3bKDbAahSbQgQ4cOCBJGjN5mkIjevu4NfZWUnBalV+Vql/8jYodONijZZNHfEtBPUNUVlZm6b1Syc99dsuP7Nxnp+zIzX3k5p/slBtgNQpNoINcu3ZNWVlZkqTRk77v49bYX/7nn0qSBiSleLxst+49lJA8TJJ08uRJS9pDfp6xU35k5xm7ZEduniE3/2SX3ABvoNAEOkhubq6+/PJLRcXGK/Gmm33dHNvLPZ4tSbrxH0a1afkbhzUs9+mnn1rTHvLziJ3yIzvP2CU7cvMMufknu+QGeAOFJtBBDh5suAYjNW2yj1viH858dkySlDB4WJuWv3HYaEnSZ599Zkl7yM8zdsqP7Dxjl+zIzTPk5p/skhvgDRSaQAc5dOiQJGnUd+/0cUvsr6LsnC6UFqlbt+6t3ri6OYNSRqpbt+4qKytTWVlZu9tEfu6zW35k5z47ZUdu7iM3/2Sn3ABvoNAEOsD58+f15Zdfqnd0rAbc6Pl1GF3N+S/zJUmxAwcrILBtX1Pdu/cwJ1b48ssv29ce8vOInfIjO8/YJTty8wy5+Se75AZ4C4Um0AGMi/QHDP4HH7fEP5QVF0qSouIS2rUeY/mioqJ2rYf8PGOn/MjOM3bJjtw8Q27+yS65Ad5CoQl0gE8++USSlJgy0sct8Q/nSxp2vtH927fzNZYvKSlp13rIzzN2yo/sPGOX7MjNM+Tmn+ySG+AtFJpABzAu0k8YkurjlvgH4yxv37iB7VpP39iG5YuLi9u1HvLzjJ3yIzvP2CU7cvMMufknu+QGeAuFJuBlly9fVl5engICAzUg6SZfN8cvfGUMJ4r1/XAi8vOcXfIjO8/ZITurc8vNydYv08c5/bdr83q3lq2rrdGbax9Xbk52i+t/c+3jqqutcfn4ucI8vfirh3SuMK9N7XdHZ8ytK7BDboA3UWgCXmZcnB/df6B63BDk49b4h4qyc5KkPjH927WePv0alm/PTHzk5zm75Ed2nrNDdt7ILWFIqh5/7T2tyTykx197T198+rGy9u20ZN2e8kbh2Vlz6+zskBvgTd193QCgszO++COiYnzcEv9w7dpVVVdVKCAgQCHhke1aV0hEpAICAlRVVaWrV6+qW7duHq+D/Dxjp/zIzjN2yc7buYWERWrc1Jk6X5TvlfU31i8+UUv+7TWvrb+r5NbZ2CU3wJvo0QS87MKFC5KkiD7RPm6Jf6iuKJck9QoNV2Bg+3aWgYHd1Cs0QpJUWVnZpnWQn2fslB/ZecYu2fkit+qqcr346/nm0NrGvZ11VxqG0Db3uCTlHr8+RPfFX89XdVXD++nYg5mbk63nlt2nglPH9dyy+1occut227twbv7MLrkB3kShCXjZV199JYmzvO66WNnwfoVFRlmyvrDIPpKkioqKNi1Pfp6xU35k5xm7ZOft3M4V5mnvlgyljBpv/u7I/t16aPnzWpN5SAtXbdDeLRlOQ1u3vfI7TUmfrzWZh/To2re0d0uG03WbRw68p9zjh7Um85DWZB7S4OFjtSPj+SZFZFLqGD269i0lJA/To2vf0v3LnlSPoOB2/T1dJbfOxi65Ad5EoQl42fnz5yVJkX37+bgl/uFiRcNZ8ZCIPpasz1hPW3e+5OcZO+VHdp6xS3beyK3gZI6efOhO/TJ9nN5e/6R+9ruNSkodYz4+4a7ZCglrGL4YMzBJ/eJvdFp+yg8XqF98oqSGobA3T5yqE0cOmo8nDEnVd2fMMX8eO3m6yooLdKHU+7OAdubcOjO75AZ4E9doAl5mnOUN78PO1x3Gzjc0orcl6zPW094eTfJzj53yIzvP2CU7b+SWMCRVDy1/XjfcEKzMDc/owx2bNW3OYvPxXZvX6/1tbzgtc+s9P1Hv6FhJUlTMAKfH+sYNdLrGMyomXjfccL1nMiQiUr3C2nfdnbs6c26dmV1yA7yJQhPwssuXL0uSeoaG+bgl7VddVa631q3SDx78uXpHx+qd11/QhLvuM8/0O8rat1OZLz3l9LuEIama++gz+uvW183l6mpr9JfMDH13xhyFhEWq7krDULMbgnta0mZjPbW1tW1a3l/zy9q3U+eL8jVtzmLl5mTrxJGDTgfWhuqqcr32zCMqOJnj9Pv0RSsUFTPAabncnGyVlZxV2m13N/u6dsrPX7PzFbtk583cegQFa0r6fL369DKljBqvpNQxys3J1heffqzHX3tPIWGR5meiJeeL8lu896Fx/V1IRKT5b2/pCrl1RnbJDfAmCk3Ay4wvfcez3bk52Xr5iYd168wHWjz4j4qJV/rDy1u9hqeutkaZG57RkQPvSZLL9TYu/HpHx2n+Y2udisSsfTt16lhWs69Zkp+rEeNvM5eZcNd9euf1F3Tf0ifMYWeGtNvu1rC0SdqR8bxmLGg4aNuR8bx6BAXrBw/+XH/JzND4O+81i05j+Wtffy1J6tbNmq8nYz1Xr15t0/Ku8muOq+I6fdGKFguzlpwrzDPfX0l67ZlHdNfcJU5D/lypq63R+aJ8cyhfUuoYnThyUFn7djZpS0hYpJb89lVzcpO02+42/228Tta+nU2KzubYKT9PsrOK8dl2NGrinUp/eLmuXKlpNkNXn71dm9fr6IE9TT6n3mKX7LydW7/4RE354QId2rNdCcnDmjx+PGt/kxMv7256UQ8tf14hYZHKzck2czEcOfCekkemKe22u1VXW6O9ma8qLjG5oXD1cqHZVXJzpfG+T2rYtz3wr7/TB/93k9PvW3vc1T7Rm+ySG+BNFJqAlxk7X1eF29EDezR28vQmO7aS/Fz1Cg13a/3GjjZ5ZJruX/akpIaD3dycbPNgdtfm9U5n7I3nPLfsPi1ctaHVwkVqKH7f3fSiCk7mNCmmnnzoTqefF6x4QR+//665E3fcmZcVF+hixQVdKC0yh6r9bfdWszi+evWbnW/3Hm79/a0x1vP1Nzt1T7WUnytGUdEjKFjnCvP06tPLFBUzwK332CpHPtqj97e90WQooCSn7EZNvFNjb71LGU/9vMnjvaPjdGj3VhWcOu60fGuFj53y8zQ7qxjDNBuffLlyxf3ZRbP27dQXn36sn/1uY5P1eItdsuuI3IalTdKhPdv0l8wMTZuzWIOHjzW/x77/44eVMCTV6fmTZ8xx6vlfuGqD02dg1MQ7daXmsn6ZPs78+fb0BS5fu198ogaP+JaeW3af0/dFW3Wl3Jrjaj92/7Indf+yJ51G4hiZGZM0OZ4IzNq3U2+vf9LlZ9cb7JIb4E0UmoCXmWd5Gw2PSRiSqqiYeJ35/BOnA5a62hod/WiPUkbfovzPP211/RdKi3W5ukrD0iaZv3Pc4RrDwhrvPJNSx2jhqg1OZ+pbcjxrvyQ5FauOvWCNDR31HU1Jn6+P3n1LP3jw57pypcbs3QwJi1RdbY3LobfG2Vir7gNmrKfdPZptGN5kTBpSVnK23YWm0fPYmuqqch3as83pAKq6qtzpvW9sTeYh7dq83hxK2DjXlobeNman/NqTnS/l5mRr75YMzX9sbYcVmZJ9srM6t6TUMU0+O40/T9PmLHbavr83a575b+ME3ojxU5pdv/H5nnDX7CaPu7qPZuPXa4/OmltHM04+lOTndsiJQbvkBngThSbgZebO18VZ3nFT79H72/+gYWmTzAPKglPHVXOpWn3j4s1CM2vfTh3as82pIMzNyda7m17UD+Yt07nC083uHE8cOahxU2e6PGCNGZgkSa3uWM8V5unUsSz1Co1o0nspOfeSGT2TjsNI/7Z7q6SG4rokP1dvv/ikLpQWOT1mFEZXv66TJAVaNJwo0KqhsxadpXd8Xxr3fDW+XnLG/EfN5YzHjGGXjkPGHId8fbhjswYPH6vMl55q0vPsaphYSESk+ZqOPaDpi1Y0mSDl/W1vNNtbZ7BTflZn1xFKCk/r7Ref1Owlj3fYED6DXbLzx9x8idz8k11yA7yJQhPwspaGE/WJ6a+eIWE6nrXf7D06ceSgkkemqYfDdS6uzrQaBWRiykhN+eECvfzEw02uB6yrrVF5aYnT/eIc3XBDsKJi4lvtccv5+/uadPf9+uRv+5yux2ypRzPttrsVFTPAnDzG6FWLGZikX23Y3myPpnndSneLrlv5Zj0dNXTWUeNruYwTBkavcNa+ndqR8bzT9Xvjps7Ukt++ahaSly66nkHwL5kZioyO0ZrMQ6qrrdFn2R9JkoJ7hmhQykj1jRvodo/mwt+85DQhk5Gr0eviSY+mnfLz1VA+41YaBnev0y0rLtCmf/+1Zi95vEOHWhvskp0vh2D6I3KT03XRrZ0Ma86HOzYrKibe5XW73mCX3ABvotAEfKhHULDGTb1Hh/Zs16gJU3WhtFhFeaf03RlzVJKfaz4vJCxSg4eP1YkjB5WUOkbVVeUqyjulsZOnS7pe1L38xMPKfOkpt6+7NDSeur+x782ap7raGu0vLXG7R1NqKIaNIjckLNIcgtaZHTnwntlzOGrinXp07X+pR1CwOaT1rrlLzAOgQUNH6JOD+3TlSo1K8nMVFROvUROmSro+O+Y7r7/Q7GuVl5aorrZGPYKCzWF9/eLnKTcn2+0ezX7xibpQWqya6ovmJB5tnbwIDdp6oHux4oJCI3qbk9RQaAHu8XSfZ3D8nrTielkAzig0AS8LCgrSpUuXdKW2Rj17hTZ5PGZgkspKClVw6rjKSs6aMxU2NnbydL3z+guqrirX8az9iktMduoJTEodozWZh8xZL41elMjomGZ7LK9cqVFZSaHbf0tkdIzb12hWV5Xri08/dhp62Ts6Timjx5vDZaXrQ2eNnXzgN2dlr1p0VtZYT/c2njVuLb/GGs8weuSjPU7vT+MZSXtHx6m6olxlJWcVGR3j9kHO7ekLlLnhGa2YM9llYePJNZpnPv9Ef9u91SmXURPvbNguHWbfNLJs6aDOTvl5mp2vDUoZqWlzF2nTc8vNSWo6kl2y87fcfI3c2q49s4K3l11yA7yJrRHwMmPnW9fMzjckLFLjps7UoT3bdbm6Sj9Aa1mTAAAgAElEQVR48Ocu1iL1jo5Vz5AwFZ46rlPHsjRu6j0un5eUOkbpi1aYNxNPGTVe72560ek6UIPRi9baUCHH6wpbm8lUath5S1Kv0HCzh9NxqOzMn/6y2aGzxsx5165as/M11tPWCRday685IWGRumvuEr394pMaNHSEQiIa3vvmirQzn3/i1EMpSRcrvmp26GyPoGBzVsVdm9drR8bzuusni/WHf/+1WRy21KMpNfS8/WjpKn1ycJ9SRo/XDx5cpn7xieZQWcdZjN0dOmun/NqanS+FhEVq9uLH9erTy5yGP3cEu2TnD7nt2rzezKelE27GzNPGNemGhas2qKzkrNNyxm2EPO2ZIzf/ZJfcAG+i0AS8LCgoSJJ0peZys88ZNHSE9m7J0KCUkeodHevyOcYw23f/8B8akHSTWRyeK8xTzt/fN2dJrKut0aljWUoemSapofAcPHysXnvmkSaTCb38xMNauGpDq71oabfd7XQQZdzzz2DcP87RR+++rbTb7lZh7mctrrsxq2fOa+/Mfu7k15yk1DG6eeJUffzBn8xbKDgOi3TMztgGCk4dN4dHv7vpRZfrraut0d/37tC3p8xQj6BgpYwar0N7tqtXaITTTJrGtP7GNnWhtLjJPU/PFeZp5C1Tmtw3sK3slF97svOlfvGJmr3kcb38xMMdemscu2TXntyMa5vPnDjW7G14jBNnjU/6uCoKXfV4VVc13BfTGOY+asJUZW54xmVW/eIT9asN251mdd61eb2k6/eszc3JNovOtmTdGXLriuySG+BNFJqAlxk7X+O+Xa4Yt8FIGTW+xaIvZmCSFBCgeIfrt/rFJ+pixUjz/m1Sw3WSjgdHxiywja+vTBiSas48a3C8xlByvm7FOEBLX7RCMxY8Yg7HPJ61X79MH+d0UDbhrtnKzcl2up9j7+g4TbjrvhbfL/Om09/MyNdexnraM3RWajm/loydPN3snZo2Z7F2bV6vFXMmS7r+3krOxYXU8F5Nf+Bnytr3TpN19ggKVtygZHM9xvWWxjZhzFArSQ8tf968Nc0d9y90+n1IWKT6xSeqd3SsTh79u55bdj2bW2c+0Ka/1075tTe7tmo8GZAxtNnQePj0wlUbmqzDGJngapIvb7FLdlbkdqG0yDzB46iutkaFp443GcXheOLNKPaMz9H5onyn9Xy4Y7PL+9Q2HjFw68wH1DduoMvRIEcP7FFoRO8m96ltPLu4OzpTbl2JXXIDvImtEfAy8yyvw83aXd3XrfEBkeO92QzVFeVSfb0GDR3R5LlrMg+12I7GvZJSw/CvJx+60yxUXD3HeN77295Q+qIV5usYZ/Ud1521b6d+mT7OqYBqPHS2NeZ1KxYNJ7pqwdBZyTm/5rh6/4weDUNL989zlaPjvfsctxlXzzV6ZEIj+7g8WDXuHeh4G5WFqzYoIXmYgnuF6NG1bzkNnW0LO+XnSXZWae2z2Ny9UJNSxzTZdpr7PHqLXbKzIrfv3DFLRXmnVF1V7vQ5MAq7qNgE83fG6IHGPZwhYZF6aPnzeu2ZR5Sbk62k1DE6V5inowf2OD33XGGeeb9gVycKR02Y6nSZgGPvptTyte7u6Ey5ecq4hKAlIWGRmv/Y7z1eztvskhvgTRSagJf17Nlw8+rLF6vava6PP/iTBo/4lmX313P3puGunudqFtnGB8aOxXKPoGDN/Okvzcca/2z+/puZT60afmWsxzgI8pSV+Xlb46LW0PgAtvHN6iU5ZdH4JIerkx7NsVN+/pSdHdglOytyi08epuCQUKdbR9XV1ujQnu0aM/n7yv7gz+ZzW7pW3XHG74TkYfro3beUMnp8k15pSU6TaRm92NUV5eZwXMfHk4aN1ptrH3fqBc186ak2zXzamXLrSuySG+BNFJqAl/Xp00eSVPnVuTavwxjW5dhT2FmFRvSW1HCrBysY64mIiGjT8lbk15XYKT+y84xdsrMqt8YToV0oLdbl6irFJDhfLtDajM994wbq1LEsnf7fI4r/phhdOGGqWz2aIWGR+tnvNurDHZt1e/oC9QgK1q7N69XjhuuTebW3R7Oz5dZV2CU3wJsoNAEv69u3rySp/Hzbd77uDI3tLIydb3XFV5asz1hPW3e+VuTXldgpP7LzjF2ysyq3hORhioqJV0l+rpJSx+jjD/6kEeNv8/j+plLDrZ2GjvqOpIahru72aIaERZr3RDaKUKtvW9PZcusq7JIb4E0UmoCX9e7dsDOpKCvxcUv8Q2h4w/tVVW7NzreqvExS23e+5OcZO+VHdp6xS3ZW5dYjKFjJI9N0aM929Ynpr6K8Uxo7eXqT50XFDNCpY1lOtxZyZNwqypEn12ieOHKwyeRB37ljlk4cPug0w23mS0+Z18t7cnlEZ8utq7BLboA3UWgCXmYMJ6r4qtTHLfEPId+c5b10sULXrl1VYGDbJza4du2qLl2slCSFh4e3aR3k5xk75Ud2nrFLdlbmNixtkj45uE9/3fq64hKT1S8+scmsqDEDk1RWUmjeWshRdVW5ivJO6QcP/rzZe2IaHHs0pYZZpSf/41wV5Z1UyuhbzFsLGUNljeui2zt0tjPm1hXYJTfAmyg0AS+LioqSxFledwUGdlNIWISqqypUXVGusN5RbV5XdWW56uvrFRYW1uaZ+MjPM3bKj+w8Y5fsrMwtJCxScYnJen/bGy5vI2M85665S5q9vcng4WPNHkbHybbOFebpnddfUM+QMEVGx6i8tKTJRD65OdlKu+1ufXrog3b/Lc3pjLl1BXbJDfAmCk3Ay/r37y9JKv0yX3VXatXjBmaEa01EVD9VV1Xoq3Nftmvn+1XJl5KuHwC1Bfl5zi75kZ3n7JCd1bmNnTxdNdUXXc4qa0hKHaNH177lssfyrrlLnH42ejYHpYzUT/75t/pLZoZSRo1XaEQfPbfsRxqUMtIsOJNSx6i6qlwf7NjsdG/V9EUr2vU3NdYZc+sK7JAb4E0UmoCX9ezZUzfeeKNOnz6ts7mfKfGmm33dJNuLio3Xl3knVVZUoEEpI1pfoBllxQWSpLi4uDavg/w8Z5f8yM5zdsiuPbm5uj9iv/jEJrdWcnUPRVe3BzJm/Jakyf84Vx/8300aNfFOPbr2v5pcj2ksf64wT88t+5Ekaf5jaxUSEamomHhzciBjqKyV/D23rsoOuQHeRKEJdICUlBSdPn1aBSdz2Pm6oU9svCTpfHHTSTg8YUziERsb2671kJ9n7JQf2XnGLtnZJbfGM37f9ZOfNXlO41lkXRWsjoVt42sx23ptpiNy8092yQ3wlkBfNwDoCkaMaDhTeebEMR+3xD/0jWnY+ZZ+WdCu9RjLx8TEtGs95OcZO+VHdp6xS3bk5hly8092yQ3wFgpNoAMMGTJEklT4xf/6uCX+Ieqbs7xlRe3b+RrLt3c4Efl5xk75kZ1n7JIduXmG3PyTXXIDvIVCE+gAffv2Vf/+/XWhtFhnT5/wdXNsr2//BElSccEXqq+/1qZ1fP11nYrzv5B0fZKKNreH/Dxip/zIzjN2yY7cPENu/skuuQHeQqEJdJBx48ZJko58+J6PW2J/EVEx6h0dp6tff63iM1+0aR1nThzT1atfKyoqypKZ+MjPfXbLj+zcZ6fsyM195Oaf7JQb4A0UmkAHGT9+vCQpJ8t791PrTBJvGilJKvjieJuWP338sCTppptusqQ95OcZO+VHdp6xS3bk5hly8092yQ3wBgpNoIMkJSWpf//+KisuVN5nR33dHNu7cVjDTdPPfNa2SSVOHz8iSRo+fLgl7SE/z9gpP7LzjF2yIzfPkJt/sktugDdQaAIdJDAwUGlpaZKkw/v/7OPW2N/AoQ07zbZc53P16zoVnGo4O2xMTtFe5OcZO+VHdp6xS3bk5hly8092yQ3wBgpNoANNnDhRkpT9wS5drLjg49bYW0zCjYroE63i/C90/kvP7jF26pP/p9rL1erbt68GDRpkWZvIz312y4/s3Gen7MjNfeTmn+yUG2A1Ck2gAw0ePFgjR47UlZrLOvhepq+bY2uBgd00dPR41V+7pmMH93q07NGP9kiSvvOd76hbt26WtYn83Ge3/MjOfXbKjtzcR27+yU65AVaj0AQ62MyZMyVJh3Zv05XaGh+3xt5GT/q+JOmTv+1ze5mrX9fpfz8+IEmaNGmS5W0iP/fZLT+yc5+dsiM395Gbf7JTboCVKDSBDjZy5EglJyerqrxMf/7jS75ujq0l3nSzwnv31ZenP9eZE+5NlPBZ9v/oUlWF4uPjlZycbHmbyM99dsuP7Nxnp+zIzX3k5p/slBtgpW6/+c1vfuPrRnQ2kZGR/OfF/6xUUVFh6frcERAQoOjoaH3wwQc6m/uZEv/hZvXpx02WXQkMDNSV2hrl5nysi5UXNGrina0us+2VNbpQWqT09HSlpKRY3ibyc5/d8iM799kpO3JzH7n5p47KLTQ0VN27d29vcwG30aMJ+MCoUaM0a9YsXbt6VW/+foXKzxf7ukm2NeGu2eoZEqYT2QdVlHeyxed+efpznT5+WH379tXtt9/utTaRn/vslh/Zuc9O2ZGb+8jNP9kpN8AqFJqAj6Snp2vQoEG6WHFB65f/fzpfVODrJtlSz5AwTZh+n65du6pN//7rZp/39dd1en3Nv6i+vl733nuvgoODvdou8nOPHfMjO/fYLTtycw+5+Se75QZYgaGz6NJ8MXTW0L17d33rW99SVlaWykrP6ZODf1FU3ED1G8AU5Y0NSEzR/2YfUOnZM7pwrkip357s9Hj9tWv6P0/+TEVnTurmm2/WAw884PUZ+MjPfXbLj+zcZ6fsyM195OafvJ0bQ2fR0Sg00aX5stCUpF69emnixIk6evSozhUX6ehHe/RZ9v9I9VL9tasKCe+tQKYsV/cbbtCwb31XRw7sVt5nR1V46rh6hoSpV2iEThz5m9743b/obO4J9e/fX7/5zW867Awv+bnHjvmRnXvslh25uYfc/JO3c6PQREcLqK+vr/d1IwBfOXPmjK+bIEm6ePGitm/frl27duny5cu+bo5fGjBggFasWKGYmJgOf23yaz9f5Ud27eeL7Mit/cjNP7Unt9jYWAUFBXmhVYBrFJro0uxSaBrKy8u1f/9+5eTk6OzZsyouLtbVq1d93SzbCg4OVnJyskaNGqVp06apZ8+ePm0P+XnGTvmRnWfskh25eYbc/JNVuVFooqNRaKJLs1uhCQAA4A0UmuhozDoLAAAAALAUhSYAAAAAwFIUmgAAAAAAS1FoAgAAAAAsRaEJAAAAALAUhSYAAAAAwFIUmgAAAAAAS1FoAgAAAAAsRaEJAAAAALAUhSYAAAAAwFIUmgAAAAAAS1FoAgAAAAAsRaEJAAAAALAUhSYAAAAAwFIUmgAAAEAnFxAQ4OsmoIuh0ESX1r17d183AQAAwOs45kFHo9BElxYaGurrJgAAAHhVz549FRjIYT86Fqc20KWFh4ervr5eVVVVunbtmq+bAwAAYKlevXopKirK181AFxRQX19f7+tGAL5WX1+vr7/+2tfNAAAAsERAQIACAwPpyYTPUGgCAAAAACzFKQ4AAAAAgKUoNAEAAAAAlqLQBAAAAABYikITAAAAAGApCk0AAAAAgKUoNAEAAAAAlqLQBAAAAABYikITAAAAAGApCk0AAAAAgKUoNAEAAAAAlqLQBAAAAABYikITAAAAAGApCk0AAAAAgKUoNAEAAAAAlqLQBAAAAABYikITAAAAAGApCk0AAAAAgKUoNAEAAAAAlqLQBAAAAABYikITAAAAAGCp7r5uQGdy5swZXzehSxk0aJAl67l48aKqqqpUV1en+vp6S9YJAADgSwEBAerevbtCQ0MVHh7u6+agC6LQRJd28eJFlZWV+boZAAAAlqqvr1ddXZ0uXLig+vp6RURE+LpJ6GIYOosuraqqytdNAAAA8KrKykpfNwFdEIUmurS6ujpfNwEAAMCrrl27pmvXrvm6GehiKDTRpXFNJgAA6Ao45kFHo9AEAAAAAFiKQhMAAAAAYCkKTQAAAACApSg0AQAAAACW4j6aAAB0ASevDfB1E/zakMCzlqyHHNrHqhwAeB89mgAAAAAAS9GjCViIM9WdU0eeQWcb6rroqQEAdCb0aAIAAAAALEWhCQAAAACwFIUmAAAAAMBSFJoAAAAAAEtRaAIAAAAALEWhCQAAAACwFIUmAAAAAMBS3EfTT/33f/+3xo0bJ0n605/+pHnz5mnLli0aPXq0IiIizN8FBQU5Lbd3717FxsYqOTlZL730kvbv3+9y/bNmzdLcuXO1adMmjR49Wqmpqdq7d6/Wr1/fYrtWr16t1NRUa/5IAAAAAH6JQtNPTZ06VRkZGbrjjjskSRs3btTEiROVmpqqnJwcJScnNykyG4uOjtbGjRsVHh7u9PucnBwdPnxYkjRjxgw9/fTTeuCBByRJixcv1pQpU8znFRcXmz8DAAAAgCQF1NfX1/u6EZ3FmTNnOuR1Kisr9fTTT+vkyZNNHlu9erUOHz6srVu3mr+Ljo7WT3/6U73yyisqLS2VJI0ZM0aSlJ2d7fI1jB5NSSosLNSf/vQnxcfHKzg4WJJc9mw6LtMRBg0a1O51WJ3ZyWsDLFtX1r6dkqS02+5u8TlRMQOUlDpGuTnZevmJh5s8p3d0nOY/tlb94hNbfc3qqnK99swjkqSHlj+vkLBI83XOF+Vr2pzF5nNzc7J1aM92pT+8XD2Cgptt+7nCPL369DJdKC1y+ZoLV21QQvIw/SUzQ9+dMUcl+bk6ceSgbk9foHdef0ET7rpPFyu+0okjB51e3/DXrRuV+u1bFRIRqdeeeUQFJ3Ncvk76ohUtvpctGRJ4tk3LtYUV25A3tp1dm9fr/W1vuPX6zb3X5wrzlPP39/W9WfPcWk9uTraZe3VVuXZkPK8ZCx4xt0tXz29um3RUV1tjy+3N29tZe7atrH07lfnSU249d+GqDUpKHdPk98Z3wewlj7t83K65GKzKx4rPuPHZkNTs5zJhSKrT9/iuzeuVMmq8+d7n5mTr3U0vOj3HYLyfkvTRu2/pBw/+XH/JzFDKqPEKjehj/s7Vd39UzAAlJA9T5oZndOTAey7bduvMB1zm6I6O/D7ubOLj49WtWzdfNwNdCD2afig8PFxr1qwxC87Y2FgtWrRIQUFBqqys1OHDh/Xmm28qKCjIaejryy+/7DR0dsuWLVq6dKnCw8NVWVmpjIwMLViwQAUFBTp8+LBZYM6bN08LFy7U3r17zTY49mxKzr2g8FxLB/GND+5aOlBqvPOuq63RO6+/YP7c2sFi4wMTYx2Fp45rwl33OT83eZgO7dmuIx/tafXALWX0eJcHJbs2N5yw6BEUrLGTp2v3my9rWNok1VRfNA8u+8Un6sznnyhl1PgWX0OSBg8fq4W/eanZwrcz6qhtZ9qcxU0ODB2L1dZUV5Vrb+armrHgkVaf2xbnCvP09otP6kJpUbMHt0YBxPbmubTb7m6y7TQuXBw1d/JCUosnNcildecK8/T+9j/ovqVPKCQs0vxcOhbqjQvHc4V5Kso7pfLSkibv/5MP3en088JVG/TtqfdoR8bzGjf1HknSO6+/oJsnTDVPTMUnD2vxZI4kRUbH6PHX3mvSFsciGUDnRqHppwoLC7V69WqNGTNG2dnZWrp0qVauXKn8/HyVlpaqtrZWQUFB6tmzpyIiIjxad2pqqnmdpXEt56JFi5yes379+ia9mrNmzWrfH9XFOfYCZO3bqUN7tjUp+nJzslVWcrbJQVzv6DhNuvvHrb6G48Gi0btw88SpLZ5ZLjh1XMEhoc32ah058J5Z0IyaeKfSH17u/h/9Dcdez7/tvt4bf+LwQc3959/q1LEsZR64XjQlDEnVbbPm6fU1/yJJ+vMfN2jUxDtVVlLYbNGVvmiFx+3yFx2x7bjbo+iqx6m6qlxvrVulHzz4c3PZ6qpyfbhjs25PX9DqAWtrjO2nX3yiy+151+b1Ki8tUULyMKfns715T1LqGK3JPCSpYbt4+8UnnUZWZO3bqVPHspx6n8mldQ0nVFZp9pInmv0cuvLxB3/SiPG3Ke22u3X/sidbfK4xsqXgZI7TSZu/7d6qhas26MSRg3p/2xvm937v6Djd80//ou3/+aw5ciVl9C2SmhaxhltnPuB22wH4LwpNP1RYWKh169Zp5cqV5u/uvfdePfvss4qNjdXQoUNVUFCghIQE5efna+rUqU7Lr1y5UgsWLFBpaanmzXMewuY4OdDq1as1ZcoUFRUV6dSpU07Po0fTe6qrynVozzZdLP9K1RXlLg8mjIO4xsMfKy+UurX+1555RFEx8Xp07X85HeRn7dupvVsyzAPCutoaHf1ojybcdZ/ZG7Am85DTwY47Q3Jb0y8+Ub/asN1l8XuuME+xA5O0JvOQ2ctm9HCsyTzkNGTuwx2bzZ6Mc4V55vCuIx/taXcb/YE3t52QsEhNSZ+v157+hcvcHYetNm6TUWQ6LhMSFqmxk6frnddfMHu762prlLnhGY2bek+rvaTGcG5jHT/73UaFhEUqNydbL/56vh5a/rxK8nP18hMPNxnKyfbWMRqPoHhu2X1NnnPkwHvmSApyaV3O399vKDIjIvXm2sdbPPFjOFeYp6MH9mj2ksedikhXjFEPS377qtO+wjghUF1VrhNHDuqpzR+oR1CwU6/2rzZMcBo6+5fMDLPX1fFElTEsGkDnR6Hph+Lj4/W73/1OhYWF2rhxozn8dc2aNZKuT9IjNVyfGR4erpycHLMwXb16tRISEvT555+bkwE5Dp1tPDmQcd2lsU6JHk2rOfbAHM/ar8HDx6pv3ECd+fwTp4Pz3v3iWjwAf3/bG03O5PeOjjOHvTr2GDQ+Wy01nGX+1Ybt5s9Gb2bv6FidPPZ33Z6+QHW1Ndqb+aru+snP1C8+0elArj09U0ZP260zH9D7297QF59+rIeWP6+Tx/6u8vMlqqutkSQFh4QqJML9M/lSy9cq+ruO2nakhgJt9pInzLwNzV0b6eqEhKsD3eCQUE2bs1g9goKVPDJNJ44cbLGtdbU1OnUsS+Om3qN+8Yma/9jvzcfKSs6q4GROsz0pjm1me/O+1q6JNAoQA7m0zLi+edfm9eaw1l2b1+v29AUun298Xxs9jSFhkVry21dbfR1jX5EyerxOHD6o55b9SPMfW6uSgi9UXlqiK1dq1CMoWME9QxQa0cejvyEpdYxbw+0B+D8KTT9kDJs1JvYxeiUnTZqkRYsWKSEhQbt379axY8fMWWlTU1O1detWp+ssJSkjI8OpF9P4t9Fj6ViAFhUVmdd7Nn6scXGKtjlXmKdDu7dq9pInJDVcFzMsbZIkNTmzbHj5iYfN4Y+tXWdn9BgYjIP+wcPH6vb0BbpypcapPcYQqaMH9mj+Y2vNM9jJI9PMA4V+8YmKTx7W4rWaJw4fdBoK5yhl1HhzUorHX3tPJfm5kqSxk6frP/51nm6eOFWRfWN0obThREdN9UXdcMP1v7/mcrWeW3af5j76jL749OMmxZLxup5MiuSPvL3tGPrFJ2rmT3/p9DtXB47VVeV6e/2TKjh13Kkny9V1wLk52dq1eb2mzVmsYWmTtCPjeVVXlTf7t14oLVZwrxAlJA9r0muWvmiFOWTTsGvzenO4sDHcct/WjWxvHchxqOyRj/aYIycci0W+B9xjjC5JSh3T5HNSXlpinmQZNfFOTf7HuRo+brIio2MkuT7R4yh90QoNGjpCb7+4SvMfW2v+/nuzHtSm55YrKiZeA4cOV0l+rmIGJqk4P1ff/qbgNbz8xMOaMf9Rp7YYHE9uNjdpFIDOg0LTD8XHx2vp0qXavXu3OQmQUUAGBQUpKChII0eO1LFjx5ScnOxyHZWVlerVq5ekpve+dOwRdXxedXW1IiIiVFtbqy1btuh73/ueJOnTTz/V5cuXuc1JOxlnngeP+JZ5EBSXmKy31v1GJw4fdOoZcLzOzthZuzt0Vro+pK3xQf9fMjMkXe8lmzZnsVmAGsMSjQO4xhPN9I6O06ChI1wewLU2GVBS6hgt+e2rTXrGjKI4a99OXaz4SmUlZ81JKIy/oXd0nB5d+5YkacCNKS6HzLX3GkC78/a209LELq4YB/Pu9JxIDfmfOXFM5wrz1C8+UZHRMWah4cqZzz8xtwN3JqlxNZHRsLTvsr11gIvlZXrx1/M1bupM89rAtNvu1qgJU5W54Rmn5/I90DrjOvnmrnF0NQFP/xuHqjD3M0nu92gu+bfXdK4wT++8/oI5/NVYzrje23g9Y9/g+L0SMzBJ+Z9/arbFnWu8AXQ+FJp+7I477tD9998vqentSN5++22VlpbqjjvucCoiDSdOnFBycrKKilzfcqLx8woKCnTp0iVFR0frwIEDiouLU1hYmCRp+PDh2rNnjwoLCxUfH2/xX9k1GNemlRUXKHZgkvn7sZOn6528F5ocODheZ+eJxrcaaW6IYXlpidIfXq4rV2qczn7fOvMBp9c1ep9mLHhE1RXlTYZUuqtxIWOc9TZ62QYNHaG9mQ0HOVPS50u6PrHRX7duNJeruVStP/z7r3Xi8P+YvzN6Mjrr2fOO2HYcJ3Zx5M6ss+7cFiV90QqnW56kjBqvE0cOupxh9FJlhT45uM9pO3M1m7KrYcBGTxbbW8cJjYzSkt++ql2b1+uX6eOcHjMKEmPoLLm07FxhnmqqL2r+Y79X7vG2zYlgfF+0NDNzaEQfp/2EYw9p+sPLFTMwSYf2bNcpZZnDd5v7XtmR8bzTaxn/bs9tZgD4DwpNP5WamqpNmzZJkhYsWKAdO3YoLi5OsbGxWrlypVavXq2IiAitXr1aS5cudSo2KyoqdPDgQc2bN09FRUVOkwoZFi9uOPtfVFSkYcOGaffu3Ro5cqRqa2tVVFSkH/7wh6qtrTWfP27cOB06dIhCsw2MHb8k3fNP/6qTR68f0PeLT9SI8bdpR8bzrd4bUDEP/jAAAAeySURBVGr9OrvGQ2cl1zOFZu3bad4z7WL5V3p07VtNeiqjYpzvBedqSKW7klLHKH3RCqd7dRq9Usa6jaFfzQ15u1jxlYJ7hSi4V0iT9naW2xo01pHbTnu0dHDvKhvjQLa68kKTx4rzTykuMdkp38azKbvqwXIsRNjefKPx7MiNkUvLjO/Y3BzX9792l6v3Rrr+/jRci/24U6+y8ViPoGDzWupTx7LMmZwbq64oV3CvEElNP/+OPaIAOjcKTT9kXKM5e/Zsbd3acJZ2+vTp2rt3r9544w1zgh9JevbZZ7Vu3TrV1NTolVdekSTNmDFDiYmJZlHY3NDZyspKlZaWKiamYceelpamTz/9VLfeequ2bNmirVu3atasWQoPD1d4eLjy8/Pp1WyDglPHFRkdo2lzFutcYZ7TY9VV5RqWNqlhWv8Nz7RaMLhznZ1RnCSPTHM6o+w4O6jj743C1Bjmenv6AhWeOq5BQ0c0Wa9xDzdP1dXWKG5QwzBvo9cjfdEKpxuLv7/tDfWOjtPYydNdHmSeOHJQw9Im6XjW/iaPdVYdve10lJCwSN2/7EmXB9RJw8dqxHjXw/SNIcTjpt7j9LfW1dao/HyJ089sbx2v8fDrhas2OP1MLvYybuo9WjFnsiTn74dzhXnauyVDF0qLmp0h2hjefr4ov0PbDMBeKDT9UHx8vF5++eUmv58yZUqT6yTDw8O1YkXDfcNcLWMMt3XkeB/NX/ziF07/v+WWW8zlGi9rPAbPNDeRymvPNNzY/qHlDT1SmRue0Yo5k5vtHXK1nh5BwU69jMbQ2Sk/XNBk2FJIWKTuW/pEk4ljjKGPC1dtUELyMLNI7Ref6DQRxZUrNSovLZErrU0G1CMoWDHxN2r/zjfNyWkyX3pKUTEDVFZyVnu3ZOjRtW/pYsVXevXpZU0m8ygp+EJFeac0/s57lf3Bn13eRqHxQW1n0JHbTnu0dn2nFfc2NIZduvobr1ypUc2lanPiGbY333CVjeN3CLl0jJpL1S7fG+n6+5OUOsY8uThj/qPav/OP6hs3UFExA8zPmTHEdvaSx51yra68YA5vP1+U7/Lz7+/3MwXgnoD6+vp6Xzeiszhz5oyvm9ClDBo0qN3rsDqzk9cGtP6kFriaqMVR1r6dOrRnm360dJX+a90Tulj+leY/tlYXK75q8WDecaZNY/Ifx2vnGr+WcY9CSeakKs0dyDuuxzjrbQyzSrvt7hYn43AcFtfcuo3rRR1v6v7O6y/oO3fM1Otr/kUJQ1KVmvZdhUZGadSEqU7313P8e1q7lrAlQwI7bphXW7chb247jWeJdVynO9doOk7M42odUsO24upay5b0jo7Tj5Y9qXc2rtXg4WOdemQbX+/nakIku21v3t7OrNi23GFsM0avoqtr8RzXaXxv2DUXg1X5WLGfOHHkoPrGDWz182K8l8bnMCF5mMv3Rrr+/hgFZOMTksZ3iOP3gTES5pZp6dr+n89Kkibd/WNVXijVtDmLXX7+jaGzbb1GsyO/jzub+Ph4devWzdfNQBdCoWkhCs2O1RkLTceDbtiHPxSabDv+z66FJhrYpdDs6ig0245CEx2NobOAjVAkoK3YdgAAgJ0E+roBAAAAAIDOhUITAAAAAGApCk0AAAAAgKUoNAEAAAAAlqLQBAAAAABYikITAAAAAGApCk0AAAAAgKUoNAEAAAAAluru6wYAncmQwLO+bgL8HNsQAADoDOjRBAAAAABYih5NAAC6AHrL7YEcAHQV9GgCAAAAACxFoQkAAAAAsBSFJgAAAADAUhSaAAAAAABLUWiiSwsICPB1EwAAALyOYx50NGadtVBMTIyvmwAP9ejRQ1euXPF1MwAAALymW7duCgykfwkdi0LTQsHBwb5uAjwUFhamsrIyXzcDAADAa8LCwnzdBHRBFJro0kJDQyVJVVVVqqurU319vY9bBAAA0H4BAQHq3r27QkNDFR4e7uvmoAsKqOfIGgAAAABgIQZrAwAAAAAsRaEJAAAAALAUhSYAAAAAwFIUmgAAAAAAS1FoAgAAAAAsRaEJAAAAALAUhSYAAAAAwFIUmgAAAAAAS1FoAgAAAAAsRaEJAAAAALAUhSYAAAAAwFIUmgAAAAAAS1FoAgAAAAAsRaEJAAAAALAUhSYAAAAAwFIUmgAAAAAAS1FoAgAAAAAsRaEJAAAAALAUhSYAAAAAwFIUmgAAAAAAS1FoAgAAAAAsRaEJAAAAALAUhSYAAAAAwFIUmgAAAAAAS1FoAgAAAAAsRaEJAAAAALAUhSYAAAAAwFIUmgAAAAAAS1FoAgAAAAAsRaEJAAAAALAUhSYAAAAAwFIUmgAAAAAAS1FoAgAAAAAsRaEJAAAAALAUhSYAAAAAwFIUmgAAAAAAS1FoAgAAAAAsRaEJAAAAALAUhSYAAAAAwFIUmgAAAAAAS1FoAgAAAAAsRaEJAAAAALAUhSYAAAAAwFIUmgAAAAAAS1FoAgAAAAAsRaEJAAAAALAUhSYAAAAAwFIUmgAAAAAAS1FoAgAAAAAsRaEJAAAAALAUhSYAAAAAwFIUmgAAAAAAS1FoAgAAAAAsRaEJAAAAALAUhSYAAAAAwFIUmgAAAAAAS1FoAgAAAAAsRaEJAAAAALDU/w+IK+LYkXwWvAAAAABJRU5ErkJggg==;" vertex="1" parent="1">
          <mxGeometry x="-90" y="120" width="922" height="555" as="geometry" />
        </mxCell>
      </root>
    </mxGraphModel>
  </diagram>
</mxfile>
